<?xml version="1.0" encoding="UTF-8"?>
<svg width="543px" height="591px" viewBox="0 0 543 591" version="1.1" xmlns="http://www.w3.org/2000/svg" xmlns:xlink="http://www.w3.org/1999/xlink">
    <!-- Generator: Sketch 64 (93537) - https://sketch.com -->
    <title>yoga lady</title>
    <desc>Created with Sketch.</desc>
    <defs>
        <linearGradient x1="14.7242013%" y1="0%" x2="85.2757987%" y2="100%" id="linearGradient-1">
            <stop stop-color="#58AFEE" offset="0%"></stop>
            <stop stop-color="#729BC2" offset="100%"></stop>
        </linearGradient>
        <linearGradient x1="0%" y1="83.0530775%" x2="93.0135258%" y2="22.6855587%" id="linearGradient-2">
            <stop stop-color="#35A9E2" offset="0%"></stop>
            <stop stop-color="#2E3782" offset="100%"></stop>
        </linearGradient>
        <filter x="-27.9%" y="-31.0%" width="155.7%" height="162.1%" filterUnits="objectBoundingBox" id="filter-3">
            <feGaussianBlur stdDeviation="16.575" in="SourceGraphic"></feGaussianBlur>
        </filter>
        <path d="M43.864383,6.35528085 C39.0831755,36.7651779 35.783801,60.2346037 33.9662596,76.7635581 C32.0923345,93.8052721 33.9662596,151.694108 27.8471512,158.517173 C23.6218755,163.228535 10.559624,165.394817 4.07528642,168.669362 C-0.0198691093,170.737386 1.07107693,174.773309 0.558221277,175.342153 L50.2135574,175.342153 C51.290625,174.538371 59.6707498,128.501153 68.3894127,81.0354651 C76.2725247,38.1186396 89.3717915,0.829702128 89.3717915,0.829702128 L43.864383,6.35528085 Z" id="path-4"></path>
        <filter x="-70.9%" y="-110.6%" width="241.9%" height="321.1%" filterUnits="objectBoundingBox" id="filter-6">
            <feGaussianBlur stdDeviation="4.9725" in="SourceGraphic"></feGaussianBlur>
        </filter>
        <linearGradient x1="113.516185%" y1="0.557332816%" x2="22.7652026%" y2="99.4426672%" id="linearGradient-7">
            <stop stop-color="#4DB7FE" offset="0%"></stop>
            <stop stop-color="#334192" offset="100%"></stop>
        </linearGradient>
        <filter x="-231.6%" y="-49.8%" width="563.1%" height="199.6%" filterUnits="objectBoundingBox" id="filter-8">
            <feGaussianBlur stdDeviation="4.9725" in="SourceGraphic"></feGaussianBlur>
        </filter>
        <filter x="-84.5%" y="-122.1%" width="269.1%" height="344.1%" filterUnits="objectBoundingBox" id="filter-9">
            <feGaussianBlur stdDeviation="4.9725" in="SourceGraphic"></feGaussianBlur>
        </filter>
        <linearGradient x1="84.8593889%" y1="-3.99802348%" x2="25.7456917%" y2="59.7916846%" id="linearGradient-10">
            <stop stop-color="#292929" offset="0%"></stop>
            <stop stop-color="#121212" offset="100%"></stop>
        </linearGradient>
        <linearGradient x1="100%" y1="50%" x2="-32.0122559%" y2="18.3356233%" id="linearGradient-11">
            <stop stop-color="#C51C53" offset="0%"></stop>
            <stop stop-color="#E5265F" offset="100%"></stop>
        </linearGradient>
        <linearGradient x1="55.0066836%" y1="100.556179%" x2="-18.531059%" y2="-6.87416436%" id="linearGradient-12">
            <stop stop-color="#C51C53" offset="0%"></stop>
            <stop stop-color="#F22A64" offset="100%"></stop>
        </linearGradient>
    </defs>
    <g id="intern" stroke="none" stroke-width="1" fill="none" fill-rule="evenodd">
        <g id="intern-map-large" transform="translate(-713.000000, -294.000000)">
            <g id="bg" transform="translate(-710.000000, -97.843208)">
                <g id="yoga-lady" transform="translate(1422.924714, 391.843208)">
                    <g id="home-exercise">
                        <g id="background-simple--inject-290" transform="translate(49.988085, 0.000000)">
                            <g id="Group-14" transform="translate(0.427277, 0.000000)">
                                <path d="M72.0148641,72.0148641 C168.034683,-24.0049547 323.713569,-24.0049547 419.733388,72.0148641 C515.753206,168.034683 515.753206,323.713569 419.733388,419.733388 L419.733388,419.733388 L259.807867,579.658908 C252.061869,587.404906 239.635778,587.354301 231.940385,579.658908 L231.940385,579.658908 L72.0148641,419.733388 C-24.0049547,323.713569 -24.0049547,168.034683 72.0148641,72.0148641 Z M245.874126,127.854545 C180.693711,127.854545 127.854545,180.693711 127.854545,245.874126 C127.854545,311.05454 180.693711,363.893706 245.874126,363.893706 C311.05454,363.893706 363.893706,311.05454 363.893706,245.874126 C363.893706,180.693711 311.05454,127.854545 245.874126,127.854545 Z" id="Pin" fill="url(#linearGradient-1)"></path>
                                <circle id="Background" fill="#FFFFFF" cx="245.874126" cy="245.874126" r="118.01958"></circle>
                            </g>
                        </g>
                        <g id="Character--inject-290" transform="translate(0.000000, 140.330638)">
                            <circle id="Oval" fill="url(#linearGradient-2)" fill-rule="nonzero" cx="205.839038" cy="354.385762" r="95.5371064"></circle>
                            <g id="Group" opacity="0.3" transform="translate(125.286383, 245.581277)" fill="#000000" fill-rule="nonzero">
                                <path d="M0.39432766,160.73594 C10.0828085,161.200149 17.7946596,155.315183 22.1821787,146.65994 C26.5696979,138.004698 27.4831404,128.0916 28.3217106,118.433068 L31.7358894,79.1550383 C32.3198936,72.4464766 32.9338468,65.5881702 35.5543787,59.373766 C38.1749106,53.1593617 43.146434,47.5589106 49.6902766,45.8967447 C56.4737106,44.2345787 64.3802298,46.8700851 70.2052979,43.0066723 C75.7608255,39.3379277 76.9438085,31.2666894 82.334617,27.3733277 C88.0698383,23.2254 96.1111277,25.3817234 102.5202,28.3616426 C114.859148,34.1092606 125.903525,42.3008464 134.984847,52.4405872 C144.059374,62.6082511 151.861072,75.2167532 164.739115,79.7090936 C168.512681,81.0268468 173.124817,81.386234 176.164634,78.7657021 C180.656974,74.8723404 178.755217,67.5648 176.074787,62.2937872 C160.812801,32.5522439 133.332685,10.9509581 100.828085,3.1446383 C86.1980298,-0.254565957 70.6395574,-0.673851064 56.3089915,3.83346383 C41.9784255,8.34077872 29.0255106,18.1041319 22.3169489,31.5512043 C14.7099191,46.8101872 18.3636894,65.004166 15.2789489,81.7755702 C10.3224,108.804485 4.63210213,134.830111 0.409302128,160.73594" id="Path" opacity="0.794875372" filter="url(#filter-3)"></path>
                            </g>
                            <path d="M201.664916,260.646155 C212.071185,259.740858 222.776678,263.119908 233.781396,270.783306 L264.434132,217.294506 L255.075089,184.425549 C237.013101,190.341796 222.938285,193.406532 212.850641,193.619759 C202.762997,193.832985 187.083545,191.397176 165.812285,186.312332 L139.097834,187.180851 L98.2624596,206.827353 L113.506468,259.687226 L108.864383,281.505026 L149.954323,278.075872 C174.021784,267.361358 191.258648,261.551452 201.664916,260.646155 Z" id="Path" fill="#FCC2AB" fill-rule="nonzero"></path>
                            <path d="M221.621693,212.204758 C221.621693,212.833686 220.235366,213.237997 218.599499,213.058303 C216.963632,212.878609 215.605031,212.249682 215.632757,211.575831 C215.660484,210.90198 217.019085,210.542592 218.682678,210.722286 C220.346272,210.90198 221.64942,211.530907 221.621693,212.204758 Z" id="Path" fill="#AA6550" fill-rule="nonzero"></path>
                            <g id="Group-18" transform="translate(65.000000, 275.000000)">
                                <mask id="mask-5" fill="white">
                                    <use xlink:href="#path-4"></use>
                                </mask>
                                <use id="Path" fill="#FCC2AB" fill-rule="nonzero" xlink:href="#path-4"></use>
                                <path d="M30.51806,166.676947 C29.01806,167.676947 15.7028692,173.816413 15.5381501,173.666668 C15.3734309,173.516923 19.4315118,169.788281 24.6426267,165.475634 L28.3263458,162.48074 C28.8718649,161.903537 29.2289861,160.26704 30.01806,160.176947 C30.4680244,160.206787 32.7574958,160.308891 33.01806,160.676947 C33.203395,160.957278 36.4049956,161.36048 36.51806,161.676947 C36.8817914,162.412784 34.8817914,164.079451 30.51806,166.676947 Z" id="Path" fill="#263238" fill-rule="nonzero" opacity="0.592587426" filter="url(#filter-6)" mask="url(#mask-5)" transform="translate(26.046673, 166.923154) rotate(-180.000000) translate(-26.046673, -166.923154) "></path>
                                <path d="M51.0752864,151.169362 L38.5752864,146.169362 C38.2419531,153.169362 37.0752864,158.002695 35.0752864,160.669362 C32.0752864,164.669362 30.0752864,167.169362 27.5752864,168.669362 C25.0752864,170.169362 19.0752864,168.669362 19.0752864,174.669362 C22.7419531,174.669362 31.4086197,174.669362 45.0752864,174.669362 L51.0752864,151.169362 Z" id="Path-5" fill="#FCC2AB" mask="url(#mask-5)"></path>
                            </g>
                            <path d="M145.173974,185.82401 C136.019689,157.812482 130.900988,136.203695 129.817872,120.997646 C128.734755,105.791598 129.925269,80.3584855 133.389413,44.6983079 C136.408502,41.7501577 138.21209,39.3544026 138.800175,37.5110426 C142.709256,25.2579939 140.358881,16.9717018 140.432185,13.8358873 C140.611879,6.70804051 138.744314,3.71302286 137.411587,3.75794627 C135.629625,3.75794627 132.010469,4.55764506 131.68103,1.95208762 C131.351592,-0.653469831 127.058362,0.718774468 125.785532,3.1446383 C124.377932,5.86999149 118.403119,22.8660128 116.411515,27.6877915 C116.191855,28.5646117 115.548432,30.3242665 114.728651,30.7050866 C113.908871,31.0859067 112.880823,30.6170271 112.069098,30.2193256 C107.247159,28.2576703 102.187247,28.1274589 101.385267,30.2193256 C100.954598,31.3426743 104.210323,33.3509251 104.985996,33.7973745 C106.794151,34.756737 108.428986,36.0119666 109.822749,37.5110426 C111.439991,39.2630553 112.727796,40.8054255 113.790983,42.1381532 C104.24992,78.5518225 98.5845798,103.960399 96.7949617,118.363882 C90.3514451,170.223596 95.2004845,200.080603 98.5619489,207.740796" id="Path" fill="#FCC2AB" fill-rule="nonzero"></path>
                            <path d="M124.288085,227.701762 C127.630834,236.937846 122.896979,247.141044 113.686162,250.5528 L43.3061617,276.608374 C40.4705813,277.655071 37.3061111,276.35282 36.0285702,273.613481 L23.8094043,247.438111 C21.796143,243.122533 21.6329233,238.171886 23.3575578,233.733073 C23.4067812,233.606383 23.4673359,233.475552 23.5386287,233.340886 C25.9652111,228.757262 40.4201327,219.246163 44.3401299,217.789143 C51.3617612,215.179278 58.1633764,212.458089 63.6120189,212.458089 C80.8074461,210.643465 86.5973489,221.921617 86.5973489,221.921617 L101.856332,216.800349 C111.048425,213.734735 121.009624,218.549315 124.318034,227.656838 L124.288085,227.701762 Z" id="Path" fill="#FCC2AB" fill-rule="nonzero"></path>
                            <path d="M113.117132,258.144855 C167.564298,246.075434 158.22023,275.095953 158.699413,274.91626 C166.344294,274.475604 200.519508,265.92824 192.463244,260.896818 C187.994129,258.105698 181.530374,235.205003 181.348296,215.541747 C181.20215,199.758974 184.00439,186.132638 184.00439,186.132638 L165.812285,186.132638 C150.634706,172.401376 135.540982,186.132638 135.540982,186.132638 C131.075534,191.744426 127.045674,195.539415 123.451403,197.517605 C118.127546,200.447713 109.731232,203.441134 98.2624596,206.49787 L100.343911,213.895302 C100.343911,213.895302 120.454621,204.296668 127.702264,223.778451 C135.189498,243.874187 111.814353,253.727387 111.814353,253.727387 L113.117132,258.144855 Z" id="Path" fill="url(#linearGradient-7)" fill-rule="nonzero"></path>
                            <path d="M86.8519149,221.310591 C89.4868286,230.528804 90.0413765,240.483741 88.454183,250.073617 C88.454183,250.073617 97.5886085,239.193362 90.7602511,220.124681 L86.8519149,221.310591 Z" id="Path" fill="#220F0A" fill-rule="nonzero" opacity="0.587727865" filter="url(#filter-8)"></path>
                            <path d="M39.7387924,220.124681 C61.5784528,208.838034 77.1979717,209.437013 86.5973489,221.921617 C90.8498528,230.761649 91.1888478,238.957825 87.614334,246.510147 C84.0398202,254.062469 80.8477238,259.30991 78.0380449,262.25247 L65.5582213,266.519745 L39.7387924,220.124681 Z" id="Path-4" fill="#FCC2AB" fill-rule="nonzero"></path>
                            <path d="M61.5600383,232.179128 C60.8065503,231.170438 44.084834,239.546566 43.9201149,239.396821 C43.7553957,239.247077 47.8134766,235.518434 53.0245915,231.205787 L56.7083106,228.210894 C57.2538297,227.633691 57.9857133,227.267749 58.7747872,227.177655 C59.2247517,227.207496 59.6373081,227.438528 59.8978723,227.806583 C60.0832073,228.086915 60.234042,228.388584 60.3471064,228.705051 C60.7108378,229.440889 61.1151484,230.598914 61.5600383,232.179128 Z" id="Path" fill="#263238" fill-rule="nonzero" opacity="0.592587426" filter="url(#filter-9)"></path>
                            <path d="M43.9650383,223.859128 C45.0482488,223.295596 46.245341,224.09219 46.6454681,225.642796 C46.8631029,226.359856 46.8697745,227.172648 46.6639701,227.896866 C46.4581656,228.621085 46.0573217,229.195371 45.5523319,229.489503 C44.4696556,230.044381 43.2757246,229.263823 42.8569277,227.727324 C42.6396263,227.004484 42.6347091,226.186405 42.8432891,225.458293 C43.0518691,224.730181 43.4563061,224.153616 43.9650383,223.859128 Z" id="Path" fill="#263238" fill-rule="nonzero" transform="translate(44.751988, 226.673107) rotate(-117.000000) translate(-44.751988, -226.673107) "></path>
                            <path d="M66.6570876,232.082629 C66.4431047,231.796171 73.5576044,253.640545 70.3818482,255.594226 C69.05817,256.408534 45.7545711,254.745582 43.9201149,254.992135 C35.5829141,256.112666 44.0185579,239.486315 43.9201149,239.396821 C43.7553957,239.247077 47.8134766,235.518434 53.0245915,231.205787 L56.7083106,228.210894 C57.2538297,227.633691 57.9857133,227.267749 58.7747872,227.177655 C59.2247517,227.207496 59.6373081,227.438528 59.8978723,227.806583 C60.0832073,228.086915 60.234042,228.388584 60.3471064,228.705051 C60.5760847,229.16828 60.697424,230.433425 61.5600383,231.205787 C61.8984689,231.508809 63.5974854,231.80109 66.6570876,232.082629 Z" id="Path" fill="#FCC2AB" fill-rule="nonzero"></path>
                            <path d="M50.9131915,245.319769 C51.9996331,244.78006 53.1895547,245.566409 53.6085957,247.101002 C53.8225142,247.820789 53.8274367,248.633082 53.6222737,249.358085 C53.4171107,250.083088 53.0187833,250.661005 52.5154596,250.963915 C51.4286174,251.515703 50.2329467,250.725556 49.8200553,249.182683 C49.6061368,248.462896 49.6012143,247.650602 49.8063774,246.925599 C50.0115404,246.200596 50.4098678,245.62268 50.9131915,245.319769 L50.9131915,245.319769 Z" id="Path" fill="#263238" fill-rule="nonzero" transform="translate(51.714326, 248.144690) rotate(-115.000000) translate(-51.714326, -248.144690) "></path>
                            <path d="M65.8932023,236.466773 C65.8275167,236.29891 67.275516,234.457949 68.067802,232.363279 C68.9010868,230.160215 69.0862856,227.700921 69.2474831,227.631837 C69.5619469,227.497066 69.9063597,228.036147 70.2956959,229.129283 C70.7924204,230.493061 70.7924204,231.988305 70.2956959,233.352083 C69.820062,234.667261 68.8466489,235.742856 67.5853171,236.346977 C66.5520788,236.631492 65.9381257,236.571594 65.8932023,236.466773 Z" id="Path" fill="#ED5C63" transform="translate(68.279641, 232.082629) rotate(-14.000000) translate(-68.279641, -232.082629) "></path>
                            <path d="M453.980949,387.748877 C453.980949,387.748877 477.341119,411.513357 482.432438,419.929009 C487.218278,427.839721 487.47721,447.089777 487.491053,449.371305 L487.491821,449.59343 L444.075286,450.169362 C444.075286,450.169362 442.575286,445.669362 447.826443,444.112774 C449.604247,443.585784 452.290864,443.529487 454.988327,439.649989 C455.645427,438.704945 456.375774,437.074173 457.179368,434.75767 C457.362283,431.483965 456.993817,428.789899 456.074233,426.674467 C454.052049,422.022591 447.494279,415.865769 436.400923,408.204 L443.888157,394.726979 C447.002847,389.021706 453.980949,387.748877 453.980949,387.748877 Z" id="Combined-Shape" fill="#FCC2AB" fill-rule="nonzero"></path>
                            <path d="M375.075286,308.169362 C379.115532,308.054351 373.00274,293.590349 369.132987,288.047385 C366.451679,284.316704 365.054052,273.117976 363.575286,268.669362 L377.760906,241.284792 L355.717559,229.478663 C352.329593,241.800139 349.355642,250.755841 346.795705,256.345772 C345.435769,259.315356 342.800132,262.665652 338.888792,266.39666 C337.839369,267.801186 337.08936,271.427039 338.220579,272.754942 C351.017121,286.540815 361.302024,297.178955 369.075286,304.669362 C369.11119,304.703959 372.381561,307.839756 373.075286,308.169362 C373.571108,308.404939 374.237774,308.404939 375.075286,308.169362 Z" id="Path" fill="#FCC2AB" fill-rule="nonzero"></path>
                            <path d="M230.904349,269.004959 C230.894857,268.987175 230.908828,268.988828 230.945763,269.009465 L230.953465,269.014466 L231.544179,267.981744 C251.144067,233.082468 245.445639,186.148339 245.32852,185.203736 L245.326711,185.189247 L248.722247,184.401466 L296.539391,166.893638 L372.954102,147.483536 C384.581337,143.919093 397.204362,147.855241 404.744898,157.396634 C412.360917,167.014486 413.225648,180.343276 406.916196,190.86457 C400.564182,202.963754 395.700748,212.068231 392.325895,218.178 C387.663004,226.619609 380.469822,239.342199 370.746347,256.345772 C366.721172,250.318382 359.61069,246.522755 349.414903,244.958892 L354.939817,205.255034 L297.503465,237.417466 L302.349485,241.283604 L464.575385,398.327241 C453.552171,398.646962 450.337374,406.255417 447.526953,416.91914 C446.03174,422.597858 390.519683,390.359577 341.406267,354.385762 C289.755738,316.553602 235.291718,272.097911 231.153142,269.147872 L230.936247,269.046268 Z" id="Combined-Shape" fill="url(#linearGradient-10)" fill-rule="nonzero"></path>
                            <circle id="Oval" fill="url(#linearGradient-11)" cx="23.9591489" cy="294.997021" r="16.4719149"></circle>
                            <path d="M40.1391987,220.025168 C38.027412,231.637941 34.6811418,239.475196 30.1003883,243.536932 C47.9865681,247.054996 59.1370615,255.79168 63.5518686,269.746984 L77.947958,263.766275 C80.2710221,272.328162 76.6807317,279.215097 67.1770868,284.427079 C57.6734419,289.639061 47.1083442,291.974165 35.4817938,291.432389 C21.4420835,288.935111 11.6114146,283.07929 5.98978723,273.864929 C0.368159871,264.650567 -0.646323275,252.813495 2.9463378,238.353714 C6.24946187,228.499375 11.8274744,222.182348 19.6803752,219.402632 C27.5332761,216.622917 34.352884,216.830429 40.1391987,220.025168 Z" id="Path-3" fill="url(#linearGradient-12)"></path>
                            <path d="M63.0574851,266.051374 C62.413583,268.776728 64.5549319,273.014502 67.340183,273.718302 C70.1566604,274.325187 73.0372542,273.009736 74.4231064,270.483817 C75.7408596,268.01303 76.1301957,266.081323 74.4231064,263.805204" id="Path" fill="#FCC2AB" fill-rule="nonzero"></path>
                            <path d="M75.7869611,263.720611 C76.5773489,263.180902 77.4430186,263.96725 77.7478715,265.501844 C77.9034975,266.22163 77.9070786,267.033924 77.7578222,267.758927 C77.6085658,268.48393 77.3187821,269.061846 76.9526134,269.364757 C76.1619342,269.916545 75.2920821,269.126397 74.991703,267.583525 C74.836077,266.863738 74.8324959,266.051444 74.9817523,265.326441 C75.1310087,264.601438 75.4207924,264.023522 75.7869611,263.720611 L75.7869611,263.720611 Z" id="Path-Copy" fill="#D6007A" fill-rule="nonzero" transform="translate(76.369787, 266.545532) rotate(-115.000000) translate(-76.369787, -266.545532) "></path>
                            <g id="Path-6" transform="translate(84.075286, 421.169362)"></g>
                        </g>
                    </g>
                </g>
            </g>
        </g>
    </g>
</svg>