<?xml version="1.0" encoding="UTF-8"?>
<svg width="42px" height="42px" viewBox="0 0 42 42" version="1.1" xmlns="http://www.w3.org/2000/svg" xmlns:xlink="http://www.w3.org/1999/xlink">
    <!-- Generator: Sketch 64 (93537) - https://sketch.com -->
    <title>calend</title>
    <desc>Created with Sketch.</desc>
    <g id="calend" stroke="none" stroke-width="1" fill="none" fill-rule="evenodd">
        <g fill="#2D2D2D" fill-rule="nonzero" id="Combined-Shape">
            <path d="M28.762,0.000966660458 C31.3586389,0.0123548639 33.4640456,2.10840429 33.4870469,4.70496666 L33.487,6.808 L34.5,6.808 C38.8362966,6.81947148 41.9769497,10.6637495 42,15 L42,33.9 C42.0224815,36.0011718 41.2020544,38.0237304 39.7221479,39.5154761 C38.2422414,41.0072218 36.1012842,42.0057387 34,42 L8,42 C3.66370336,41.9885285 0.0230503147,38.4832172 2.45137244e-12,34.1469667 L2.45137244e-12,15.2469667 C0.0115391148,10.9025129 3.55554623,7.01153911 7.9,7 L8.357,7 L8.35793068,4.74696666 C8.35121783,3.49679948 8.84237366,2.29535677 9.723,1.40796666 C10.5941933,0.485723964 11.8146081,-0.025324749 13.083,0.00096666046 C15.6796389,0.0123548639 17.7850456,2.10840429 17.8080483,4.70496666 L17.808,7 L24.057,7 L24.058,4.70496666 C24.058,2.1791844 26.0486747,0.118349128 28.5466776,0.00580718507 L28.762,0.000966660458 Z M39,21 L3,21 L3,34 C2.99994998,35.2548895 3.6303098,36.6257463 4.52158565,37.5091347 C5.41286149,38.3925232 6.74516047,39.0112044 8,39 L34,39 C35.2512254,39.0000125 36.5758997,38.2105322 37.458677,37.323814 C38.3414543,36.4370957 39.0055858,35.2512129 39,34 L39,21 Z M24.1878063,10.0007995 L17.6859004,10.0007857 C17.202402,12.0888874 15.3400138,13.6522004 13.104,13.6719667 L13.083,13.6719667 C10.881824,13.6719667 9.03214835,12.1668038 8.50713976,10.1295616 L7.9,10.129 C6.63416332,10.1175832 5.41715064,10.6168372 4.52401069,11.5139291 C3.63087074,12.411021 2.98299466,13.7342261 3,15 L3,18 L39,18 L39,15 C39.0055819,13.7468483 38.3671163,12.2548398 37.4849425,11.3647894 C36.6027687,10.4747391 35.7531518,10.0055572 34.5,10 L33.363078,10.0013895 C33.1657492,10.8454989 32.7381597,11.6264557 32.1179425,12.2522106 C31.2357687,13.1422609 30.0361518,13.6454095 28.783,13.6509667 L28.783,13.6299667 C27.5288813,13.6358882 26.3252684,13.1362753 25.444,12.2439667 C24.8209501,11.6216923 24.3895296,10.8434003 24.1878063,10.0007995 Z M13.083,3.17196656 C12.6990355,3.18623067 12.3364566,3.35241264 12.075,3.63396666 C11.7712539,3.92343367 11.6035336,4.32748692 11.613,4.74696666 L11.613,8.94696666 C11.6216015,9.72093479 12.1892893,10.3660546 12.9401574,10.4849396 L13.083,10.5009667 C13.9562346,10.4894757 14.6580756,9.77827681 14.658,8.90496666 L14.658,4.70496666 C14.6364993,3.89897452 14.0122355,3.24774303 13.2237584,3.17812728 L13.083,3.17196656 Z M28.783,3.12996666 C27.9213636,3.14145616 27.2289234,3.84325363 27.229,4.70496666 L27.229,8.90496666 C27.229,9.72649023 27.8579777,10.4011082 28.6606429,10.4735302 L28.804,10.4799667 C29.6738485,10.4799667 30.379,9.77481514 30.379,8.90496666 L30.379,4.70496666 C30.3790375,4.28358662 30.2102208,3.87976355 29.9102935,3.58378261 C29.647857,3.32479928 29.3041907,3.16728235 28.9401081,3.13571362 L28.783,3.12996666 Z"></path>
        </g>
    </g>
</svg>