<?xml version="1.0" encoding="UTF-8"?>
<svg width="42px" height="42px" viewBox="0 0 42 42" version="1.1" xmlns="http://www.w3.org/2000/svg" xmlns:xlink="http://www.w3.org/1999/xlink">
    <!-- Generator: Sketch 64 (93537) - https://sketch.com -->
    <title>dotmap</title>
    <desc>Created with Sketch.</desc>
    <g id="dotmap" stroke="none" stroke-width="1" fill="none" fill-rule="evenodd">
        <g transform="translate(6.555556, 1.000000)" fill="#2D2D2D" fill-rule="nonzero">
            <path d="M14.0444444,-6.31593543e-13 C16.6095922,-6.31593543e-13 18.9804124,0.628993103 21.1430326,1.88785941 C23.2599494,3.13876483 24.9501241,4.82893947 26.2047182,6.95214579 C27.4598958,9.10847653 28.0888889,11.4792967 28.0888889,14.0444444 C28.0888889,15.9993497 27.6167214,18.202798 26.6802951,20.6686385 C25.8867252,22.7136071 24.7935631,24.915114 23.3917792,27.2917356 C22.2495033,29.155449 20.9437805,31.0915207 19.4780271,33.0956887 C18.7102127,34.1570792 17.9086255,35.2014031 17.07105,36.2312785 L16.2213962,37.2564349 L14.0444444,39.7962119 L11.8534108,37.2396747 L10.7385416,35.8857704 C10.0026351,34.9692323 9.29340338,34.0392021 8.61425518,33.100354 C7.14510842,31.0915207 5.83938563,29.155449 4.68737122,27.2755389 C3.29532577,24.915114 2.2021637,22.7136071 1.40570873,20.6611233 C0.472167487,18.202798 -6.6317322e-13,15.9993497 -6.6317322e-13,14.0444444 C-6.6317322e-13,11.4792967 0.628993103,9.10847653 1.88785941,6.94585632 C3.13876483,4.82893947 4.82893947,3.13876483 6.95214579,1.88417069 C9.10847653,0.628993103 11.4792967,-6.31593543e-13 14.0444444,-6.31593543e-13 Z M14.0444444,3.06969625 C11.9899428,3.06969625 10.1156758,3.57013007 8.40854327,4.57016128 C6.7142121,5.57775836 5.37236355,6.92818633 4.37465127,8.62737323 C3.37748997,10.3513981 2.88023546,12.2376487 2.88023546,14.3052863 C2.88023546,15.8828292 3.27376256,17.7310308 4.06828521,19.8367291 C4.77386928,21.6665903 5.75614563,23.6574338 7.00658717,25.7916052 C8.05440521,27.5121337 9.25565887,29.3046913 10.6135743,31.1733285 C11.0295051,31.7519677 11.4563418,32.3251774 11.8916556,32.8899487 L12.5506803,33.7304005 L13.5819866,34.9910303 L14.0423459,35.532526 L14.5018938,34.9969549 C14.9669588,34.4426989 15.4211057,33.8830192 15.8646204,33.3175242 L16.5219538,32.4648715 L17.4785191,31.1688946 C18.83323,29.3046913 20.0344837,27.5121337 21.0731052,25.8069982 C22.3327433,23.6574338 23.3150196,21.6665903 24.0178792,19.8438715 C24.8151263,17.7310308 25.2086534,15.8828292 25.2086534,14.3052863 C25.2086534,12.2376487 24.7113989,10.3513981 23.717721,8.63335062 C22.7165253,6.92818633 21.3746768,5.57775836 19.686285,4.57366696 C17.973213,3.57013007 16.0989461,3.06969625 14.0444444,3.06969625 Z M14.0418534,7.64522027 C15.1874346,7.64522027 16.2634111,7.93490625 17.2475637,8.50899523 C18.2264504,9.08001248 19.0088764,9.86243851 19.5798937,10.8413252 C20.1539826,11.8254778 20.4436686,12.9014543 20.4436686,14.0470355 C20.4436686,15.195578 20.152394,16.2670526 19.5740906,17.237776 C19.0029126,18.1965391 18.2223682,18.9668132 17.2475637,19.5354492 C16.2634111,20.1095382 15.1874346,20.3992242 14.0418534,20.3992242 C12.2914166,20.3992242 10.7679227,19.7731308 9.54184039,18.5470485 C8.31575812,17.3209662 7.68966471,15.7974723 7.68966471,14.0470355 C7.68966471,12.9014543 7.97935069,11.8254778 8.55343968,10.8413252 C9.12207566,9.86652069 9.89234978,9.08597624 10.8511128,8.51479825 C11.8218363,7.93649493 12.8933109,7.64522027 14.0418534,7.64522027 Z M14.0444444,10.5333333 C13.4137961,10.5333333 12.8474607,10.6872886 12.324228,10.9990017 C11.7902838,11.3170961 11.3690142,11.7439826 11.0486432,12.29319 C10.7331558,12.8340256 10.5777778,13.411144 10.5777778,14.0444444 C10.5777778,15.0249376 10.9059504,15.8234908 11.5856742,16.5032147 C12.265398,17.1829385 13.0639513,17.5111111 14.0444444,17.5111111 C14.6777449,17.5111111 15.2548633,17.3557331 15.7956989,17.0402457 C16.3449063,16.7198747 16.7717927,16.2986051 17.0898872,15.7646609 C17.4016003,15.2414282 17.5555556,14.6750928 17.5555556,14.0444444 C17.5555556,13.411144 17.4001775,12.8340256 17.0846901,12.29319 C16.7664517,11.7476385 16.3412504,11.3224372 15.7956989,11.0041988 C15.2548633,10.6887114 14.6777449,10.5333333 14.0444444,10.5333333 Z"></path>
        </g>
    </g>
</svg>