<?xml version="1.0" encoding="UTF-8"?>
<svg width="22px" height="20px" viewBox="0 0 22 20" version="1.1" xmlns="http://www.w3.org/2000/svg" xmlns:xlink="http://www.w3.org/1999/xlink">
    <!-- Generator: Sketch 64 (93537) - https://sketch.com -->
    <title>icon--1</title>
    <desc>Created with Sketch.</desc>
    <g id="icon--1" stroke="none" stroke-width="1" fill="none" fill-rule="evenodd">
        <path d="M6.12267478,8.89236236 L6.12267478,15.8923624 C6.12267478,16.4051982 6.50871497,16.8278695 7.00605365,16.8856346 L7.12267478,16.8923624 L8.122,16.892 L8.12267478,13.8923624 C8.12267478,12.2946815 9.37159474,10.9887015 10.946402,10.8974551 L11.1226748,10.8923624 C12.7203557,10.8923624 14.0263357,12.1412823 14.1175821,13.7160896 L14.1226748,13.8923624 L14.122,16.892 L15.1226748,16.8923624 C15.6355106,16.8923624 16.0581819,16.5063222 16.115947,16.0089835 L16.1226748,15.8923624 L16.1226748,8.89236236 L18.1226748,8.89236236 L18.1226748,15.8923624 C18.1226748,17.4900432 16.8737548,18.7960232 15.2989476,18.8872697 L15.1226748,18.8923624 L12.1226748,18.8923624 L12.1226748,13.8923624 C12.1226748,13.3400776 11.6749595,12.8923624 11.1226748,12.8923624 C10.6098389,12.8923624 10.1871676,13.2784026 10.1294025,13.7757412 L10.1226748,13.8923624 L10.1226748,18.8923624 L7.12267478,18.8923624 C5.52499389,18.8923624 4.2190139,17.6434424 4.12776747,16.0686352 L4.12267478,15.8923624 L4.12267478,8.89236236 L6.12267478,8.89236236 Z M13.6973798,1.88721129 L13.8633981,2.0289551 L22.0399014,9.39960114 L20.7007886,10.8851236 L12.5242853,3.51447755 C11.8080787,2.86885866 10.741695,2.83088108 9.98429117,3.40054481 L9.84605973,3.51447755 L1.66955639,10.8851236 L0.330443607,9.39960114 L8.50694694,2.0289551 C9.92017594,0.75501069 12.0151254,0.664014661 13.525743,1.75596701 L13.6973798,1.88721129 Z" id="Shape" fill="#35A9E2" fill-rule="nonzero"></path>
    </g>
</svg>