<?xml version="1.0" encoding="UTF-8"?>
<svg width="18px" height="16px" viewBox="0 0 18 16" version="1.1" xmlns="http://www.w3.org/2000/svg" xmlns:xlink="http://www.w3.org/1999/xlink">
    <!-- Generator: Sketch 64 (93537) - https://sketch.com -->
    <title>icon--13</title>
    <desc>Created with Sketch.</desc>
    <g id="icon--13" stroke="none" stroke-width="1" fill="none" fill-rule="evenodd">
        <path d="M10.1186898,0.321073902 L10.1338835,0.334735107 L17.6338835,7.19187796 C18.1170063,7.63359027 18.121987,8.34691809 17.6488254,8.79423072 L17.6338835,8.80812204 L10.1338835,15.6652649 C9.64572811,16.1115784 8.85427189,16.1115784 8.36611652,15.6652649 C7.88299369,15.2235526 7.87801304,14.5102248 8.35117458,14.0629121 L8.36611652,14.0490208 L13.888,9 L1.2,9 C0.5372583,9 0,8.55228475 0,8 C0,7.4532381 0.52656686,7.00896476 1.18015581,7.00013397 L13.888,7 L8.36611652,1.95097918 C7.88299369,1.50926687 7.87801304,0.795939052 8.35117458,0.348626426 L8.36611652,0.334735107 C8.84923936,-0.106977199 9.62944166,-0.111530934 10.1186898,0.321073902 Z" id="Combined-Shape" fill="#FFFFFF" fill-rule="nonzero"></path>
    </g>
</svg>