<?xml version="1.0" encoding="UTF-8"?>
<svg width="21px" height="16px" viewBox="0 0 21 16" version="1.1" xmlns="http://www.w3.org/2000/svg" xmlns:xlink="http://www.w3.org/1999/xlink">
    <!-- Generator: Sketch 64 (93537) - https://sketch.com -->
    <title>icon--1</title>
    <desc>Created with Sketch.</desc>
    <g id="icon--1" stroke="none" stroke-width="1" fill="none" fill-rule="evenodd">
        <path d="M4.12267478,6.89236236 L4.12267478,13.8923624 C4.12267478,14.9969319 5.01810528,15.8923624 6.12267478,15.8923624 L8.12267478,15.8923624 L8.12267478,15.8923624 L8.12267478,11.8923624 C8.12267478,10.7877929 9.01810528,9.89236236 10.1226748,9.89236236 C11.2272443,9.89236236 12.1226748,10.7877929 12.1226748,11.8923624 L12.1226748,15.8923624 L12.1226748,15.8923624 L14.1226748,15.8923624 C15.2272443,15.8923624 16.1226748,14.9969319 16.1226748,13.8923624 L16.1226748,6.89236236 L16.1226748,6.89236236 M20.370345,8.14236236 L12.1938417,0.771716325 C11.0523875,-0.257238775 9.31795753,-0.257238775 8.17650334,0.771716325 L6.44817533e-13,8.14236236 L6.44817533e-13,8.14236236" id="Shape" stroke="#35A9E2" stroke-width="2" fill-rule="nonzero"></path>
    </g>
</svg>