<?xml version="1.0" encoding="UTF-8"?>
<svg width="22px" height="18px" viewBox="0 0 22 18" version="1.1" xmlns="http://www.w3.org/2000/svg" xmlns:xlink="http://www.w3.org/1999/xlink">
    <!-- Generator: Sketch 64 (93537) - https://sketch.com -->
    <title>icon--12</title>
    <desc>Created with Sketch.</desc>
    <g id="icon--12" stroke="none" stroke-width="1" fill="none" fill-rule="evenodd">
        <path d="M8.15625,17.125 C8.67708333,17.125 9.125,16.9375 9.5,16.5625 C9.875,16.1875 10.0625,15.7083333 10.0625,15.125 C10.0625,14.5416667 9.875,14.0625 9.5,13.6875 L9.5,13.6875 L6.5,10.5625 L20.0625,10.5625 C20.6041667,10.5625 21.0625,10.3645833 21.4375,9.96875 C21.8125,9.57291667 22,9.10416667 22,8.5625 C22,8.02083333 21.8125,7.55208333 21.4375,7.15625 C21.0625,6.76041667 20.6041667,6.5625 20.0625,6.5625 L20.0625,6.5625 L6.5,6.5625 L9.5625,3.4375 C9.9375,3.0625 10.125,2.58333333 10.125,2 C10.125,1.41666667 9.9375,0.9375 9.5625,0.5625 C9.1875,0.1875 8.72916667,0 8.1875,0 C7.64583333,0 7.1875,0.1875 6.8125,0.5625 L6.8125,0.5625 L0.5625,7.125 C0.1875,7.5 0,7.97916667 0,8.5625 C0,9.10416667 0.1875,9.5625 0.5625,9.9375 L0.5625,9.9375 L6.8125,16.5625 C7.1875,16.9375 7.63541667,17.125 8.15625,17.125 Z" id="" fill="#35A9E2" fill-rule="nonzero"></path>
    </g>
</svg>