<?xml version="1.0" encoding="UTF-8"?>
<svg width="20px" height="18px" viewBox="0 0 20 18" version="1.1" xmlns="http://www.w3.org/2000/svg" xmlns:xlink="http://www.w3.org/1999/xlink">
    <!-- Generator: Sketch 64 (93537) - https://sketch.com -->
    <title>icon--14</title>
    <desc>Created with Sketch.</desc>
    <g id="icon--14" stroke="none" stroke-width="1" fill="none" fill-rule="evenodd">
        <path d="M15.4375,16 C15.8541667,16 16.21875,15.84375 16.53125,15.53125 C16.84375,15.21875 17,14.8541667 17,14.4375 L17,14.4375 L17,3.8125 C17,3.39583333 16.84375,3.03125 16.53125,2.71875 C16.21875,2.40625 15.8541667,2.25 15.4375,2.25 L15.4375,2.25 L14.5,2.25 L14.5,1 L12.625,1 L12.625,2.25 L6.375,2.25 L6.375,1 L4.5,1 L4.5,2.25 L3.5625,2.25 C3.14583333,2.25 2.78125,2.40625 2.46875,2.71875 C2.15625,3.03125 2,3.39583333 2,3.8125 L2,3.8125 L2,14.4375 C2,14.8541667 2.15625,15.21875 2.46875,15.53125 C2.78125,15.84375 3.14583333,16 3.5625,16 L3.5625,16 L15.4375,16 Z M15.4375,14.4375 L3.5625,14.4375 L3.5625,6.15625 L15.4375,6.15625 L15.4375,14.4375 Z M13.875,12.875 L13.875,9.125 L10.125,9.125 L10.125,12.875 L13.875,12.875 Z" id="" fill="#FFFFFF" fill-rule="nonzero"></path>
    </g>
</svg>