<?xml version="1.0" encoding="UTF-8"?>
<svg width="16px" height="13px" viewBox="0 0 16 13" version="1.1" xmlns="http://www.w3.org/2000/svg" xmlns:xlink="http://www.w3.org/1999/xlink">
    <!-- Generator: Sketch 64 (93537) - https://sketch.com -->
    <title>icon--5</title>
    <desc>Created with Sketch.</desc>
    <g id="icon--5" stroke="none" stroke-width="1" fill="none" fill-rule="evenodd">
        <path d="M1.71428776,3.42857552 C2.66071746,3.42857552 3.42857552,2.66071746 3.42857552,1.71428776 C3.42857552,0.767858058 2.66071746,0 1.71428776,0 C0.767858058,0 0,0.767858058 0,1.71428776 C0,2.66071746 0.767858058,3.42857552 1.71428776,3.42857552 Z M15.7143044,2.85714626 C15.8660903,2.85714626 16.0000191,2.72321753 16.0000191,2.57142925 L16.0000191,0.857143879 C16.0000191,0.705357984 15.8660903,0.571429253 15.7143044,0.571429253 L4.85714865,0.571429253 C4.70536275,0.571429253 4.57143402,0.705357984 4.57143402,0.857143879 L4.57143402,2.57142925 C4.57143402,2.72321753 4.70536275,2.85714626 4.85714865,2.85714626 L15.7143044,2.85714626 Z M1.71428776,8.00000954 C2.66071746,8.00000954 3.42857552,7.23215148 3.42857552,6.28572178 C3.42857552,5.33929208 2.66071746,4.57143402 1.71428776,4.57143402 C0.767858058,4.57143402 0,5.33929208 0,6.28572178 C0,7.23215148 0.767858058,8.00000954 1.71428776,8.00000954 Z M15.7143044,7.42858028 C15.8660903,7.42858028 16.0000191,7.29465155 16.0000191,7.14286327 L16.0000191,5.4285779 C16.0000191,5.276792 15.8660903,5.14286327 15.7143044,5.14286327 L4.85714865,5.14286327 C4.70536275,5.14286327 4.57143402,5.276792 4.57143402,5.4285779 L4.57143402,7.14286327 C4.57143402,7.29465155 4.70536275,7.42858028 4.85714865,7.42858028 L15.7143044,7.42858028 Z M1.71428776,12.5714436 C2.66071746,12.5714436 3.42857552,11.8035855 3.42857552,10.8571558 C3.42857552,9.9107261 2.66071746,9.14286804 1.71428776,9.14286804 C0.767858058,9.14286804 0,9.9107261 0,10.8571558 C0,11.8035855 0.767858058,12.5714436 1.71428776,12.5714436 Z M15.7143044,12.0000143 C15.8660903,12.0000143 16.0000191,11.8660856 16.0000191,11.7142973 L16.0000191,10.0000119 C16.0000191,9.84822603 15.8660903,9.71429729 15.7143044,9.71429729 L4.85714865,9.71429729 C4.70536275,9.71429729 4.57143402,9.84822603 4.57143402,10.0000119 L4.57143402,11.7142973 C4.57143402,11.8660856 4.70536275,12.0000143 4.85714865,12.0000143 L15.7143044,12.0000143 Z" id="" fill="#4DB7FE" fill-rule="nonzero"></path>
    </g>
</svg>