<?xml version="1.0" encoding="UTF-8"?>
<svg width="18px" height="21px" viewBox="0 0 18 21" version="1.1" xmlns="http://www.w3.org/2000/svg" xmlns:xlink="http://www.w3.org/1999/xlink">
    <!-- Generator: Sketch 64 (93537) - https://sketch.com -->
    <title>icon--7</title>
    <desc>Created with Sketch.</desc>
    <g id="icon--7" stroke="none" stroke-width="1" fill="none" fill-rule="evenodd">
        <path d="M15.984375,21 C16.515625,21 16.984375,20.796875 17.390625,20.390625 C17.796875,19.984375 18,19.515625 18,18.984375 L18,18.984375 L18,4.265625 C18,3.734375 17.796875,3.265625 17.390625,2.859375 C16.984375,2.453125 16.515625,2.25 15.984375,2.25 L15.984375,2.25 L11.90625,2.25 C11.75,1.59375 11.3984375,1.0546875 10.8515625,0.6328125 C10.3046875,0.2109375 9.6875,0 9,0 C8.3125,0 7.6953125,0.2109375 7.1484375,0.6328125 C6.6015625,1.0546875 6.25,1.59375 6.09375,2.25 L6.09375,2.25 L2.015625,2.25 C1.484375,2.25 1.015625,2.453125 0.609375,2.859375 C0.203125,3.265625 0,3.734375 0,4.265625 L0,4.265625 L0,18.984375 C0,19.515625 0.203125,19.984375 0.609375,20.390625 C1.015625,20.796875 1.484375,21 2.015625,21 L2.015625,21 L15.984375,21 Z M9,4.265625 C8.71875,4.265625 8.484375,4.1640625 8.296875,3.9609375 C8.109375,3.7578125 8.015625,3.515625 8.015625,3.234375 C8.015625,2.953125 8.109375,2.71875 8.296875,2.53125 C8.484375,2.34375 8.71875,2.25 9,2.25 C9.28125,2.25 9.515625,2.34375 9.703125,2.53125 C9.890625,2.71875 9.984375,2.953125 9.984375,3.234375 C9.984375,3.515625 9.890625,3.7578125 9.703125,3.9609375 C9.515625,4.1640625 9.28125,4.265625 9,4.265625 Z M16.125,19.125 L1.875,19.125 L1.875,4.125 L3.75,4.125 L3.75,7.5 L14.25,7.5 L14.25,4.125 L16.125,4.125 L16.125,19.125 Z" id="ï¶" fill="#2E3782" fill-rule="nonzero"></path>
    </g>
</svg>