<?xml version="1.0" encoding="UTF-8"?>
<svg width="15px" height="15px" viewBox="0 0 15 15" version="1.1" xmlns="http://www.w3.org/2000/svg" xmlns:xlink="http://www.w3.org/1999/xlink">
    <!-- Generator: Sketch 64 (93537) - https://sketch.com -->
    <title>icon--4</title>
    <desc>Created with Sketch.</desc>
    <g id="icon--4" stroke="none" stroke-width="1" fill="none" fill-rule="evenodd">
        <path d="M8,14.688 L8,13.312 C8.91733333,13.216 9.76266667,12.9226667 10.536,12.432 C11.3093333,11.9413333 11.9413333,11.3093333 12.432,10.536 C12.9226667,9.76266667 13.216,8.91733333 13.312,8 L13.312,8 L14.688,8 L14.688,6.688 L13.312,6.688 C13.216,5.77066667 12.9226667,4.92533333 12.432,4.152 C11.9413333,3.37866667 11.3093333,2.74666667 10.536,2.256 C9.76266667,1.76533333 8.91733333,1.472 8,1.376 L8,1.376 L8,5.06261699e-14 L6.688,5.06261699e-14 L6.688,1.376 C5.77066667,1.472 4.928,1.76533333 4.16,2.256 C3.392,2.74666667 2.76266667,3.37866667 2.272,4.152 C1.78133333,4.92533333 1.48266667,5.77066667 1.376,6.688 L1.376,6.688 L5.68434189e-14,6.688 L5.68434189e-14,8 L1.376,8 C1.48266667,8.91733333 1.78133333,9.76266667 2.272,10.536 C2.76266667,11.3093333 3.392,11.9413333 4.16,12.432 C4.928,12.9226667 5.77066667,13.216 6.688,13.312 L6.688,13.312 L6.688,14.688 L8,14.688 Z M7.344,12 C6.49066667,12 5.70666667,11.792 4.992,11.376 C4.288,10.96 3.728,10.4 3.312,9.696 C2.896,8.98133333 2.688,8.19733333 2.688,7.344 C2.688,6.49066667 2.896,5.70666667 3.312,4.992 C3.728,4.288 4.288,3.728 4.992,3.312 C5.70666667,2.896 6.49066667,2.688 7.344,2.688 C8.19733333,2.688 8.98133333,2.896 9.696,3.312 C10.4,3.728 10.96,4.288 11.376,4.992 C11.792,5.70666667 12,6.49066667 12,7.344 C12,8.19733333 11.792,8.98133333 11.376,9.696 C10.96,10.4 10.4,10.96 9.696,11.376 C8.98133333,11.792 8.19733333,12 7.344,12 Z M7.344,10 C7.824,10 8.26666667,9.88 8.672,9.64 C9.07733333,9.4 9.4,9.07733333 9.64,8.672 C9.88,8.26666667 10,7.824 10,7.344 C10,6.864 9.88,6.42133333 9.64,6.016 C9.4,5.61066667 9.07733333,5.288 8.672,5.048 C8.26666667,4.808 7.824,4.688 7.344,4.688 C6.864,4.688 6.42133333,4.808 6.016,5.048 C5.61066667,5.288 5.288,5.61066667 5.048,6.016 C4.808,6.42133333 4.688,6.864 4.688,7.344 C4.688,7.824 4.808,8.26666667 5.048,8.672 C5.288,9.07733333 5.61066667,9.4 6.016,9.64 C6.42133333,9.88 6.864,10 7.344,10 Z" id="" fill="#66A0D4" fill-rule="nonzero"></path>
    </g>
</svg>