<?xml version="1.0" encoding="UTF-8"?>
<svg width="11px" height="15px" viewBox="0 0 11 15" version="1.1" xmlns="http://www.w3.org/2000/svg" xmlns:xlink="http://www.w3.org/1999/xlink">
    <!-- Generator: Sketch 64 (93537) - https://sketch.com -->
    <title>icon--2</title>
    <desc>Created with Sketch.</desc>
    <g id="icon--2" stroke="none" stroke-width="1" fill="none" fill-rule="evenodd">
        <path d="M6.2963512,10.0000119 C6.55304794,10.0000119 6.74278031,9.709833 6.74278031,9.464297 C6.74278031,9.1406359 7.15572723,8.37054569 7.81421015,7.99108095 C8.87447928,7.39956239 10.3142131,6.58482928 10.3142131,4.46429104 C10.3142131,1.90848442 7.63563851,0 5.24724281,0 C2.97045438,0 1.27402379,0.9709833 0.0686652063,2.96875354 C-0.0541027972,3.16964664 -0.00945988683,3.41518264 0.180272482,3.5602721 L2.01063181,4.95536305 C2.09991763,5.01116669 2.18920345,5.04464887 2.28965,5.04464887 C2.412418,5.04464887 2.54634673,4.97768451 2.63563255,4.86607723 C3.29411548,4.04018339 3.56197294,3.77232593 3.8298304,3.58259356 C4.07536641,3.41518264 4.53295624,3.25893246 5.03518898,3.25893246 C5.93920792,3.25893246 6.75394103,3.81696884 6.75394103,4.44196958 C6.75394103,5.15625615 6.39679775,5.52456016 5.53742173,5.91518562 C4.5552777,6.36161473 3.21599039,7.5223304 3.21599039,8.87277843 L3.21599039,9.37501118 C3.21599039,9.62054718 3.37224057,10.0000119 3.61777658,10.0000119 L6.2963512,10.0000119 Z M6.34099411,14.2857313 C6.58653012,14.2857313 6.78742322,14.0848382 6.78742322,13.8393022 L6.78742322,11.1607276 C6.78742322,10.9151916 6.58653012,10.7142985 6.34099411,10.7142985 L3.66241949,10.7142985 C3.41688348,10.7142985 3.21599039,10.9151916 3.21599039,11.1607276 L3.21599039,13.8393022 C3.21599039,14.0848382 3.41688348,14.2857313 3.66241949,14.2857313 L6.34099411,14.2857313 Z" id="" fill="#4DB7FE" fill-rule="nonzero"></path>
    </g>
</svg>