<?xml version="1.0" encoding="UTF-8"?>
<svg width="12px" height="17px" viewBox="0 0 12 17" version="1.1" xmlns="http://www.w3.org/2000/svg" xmlns:xlink="http://www.w3.org/1999/xlink">
    <!-- Generator: Sketch 64 (93537) - https://sketch.com -->
    <title>icon--3</title>
    <desc>Created with Sketch.</desc>
    <g id="icon--3" stroke="none" stroke-width="1" fill="none" fill-rule="evenodd">
        <path d="M5.82,16.64 L6.42,15.94 C6.92666667,15.34 7.40666667,14.7266667 7.86,14.1 C8.51333333,13.2066667 9.09333333,12.3466667 9.6,11.52 C10.2133333,10.48 10.6933333,9.51333333 11.04,8.62 C11.44,7.56666667 11.64,6.63333333 11.64,5.82 C11.64,4.75333333 11.38,3.77333333 10.86,2.88 C10.34,2 9.64,1.3 8.76,0.78 C7.86666667,0.26 6.88666667,4.97379915e-14 5.82,4.97379915e-14 C4.75333333,4.97379915e-14 3.77333333,0.26 2.88,0.78 C2,1.3 1.3,2 0.78,2.88 C0.26,3.77333333 -2.91322522e-13,4.75333333 -2.91322522e-13,5.82 C-2.91322522e-13,6.63333333 0.2,7.56666667 0.6,8.62 C0.946666667,9.51333333 1.42666667,10.48 2.04,11.52 C2.54666667,12.3466667 3.12666667,13.2066667 3.78,14.1 C4.23333333,14.7266667 4.71333333,15.34 5.22,15.94 L5.22,15.94 L5.82,16.64 Z M5.82,7.88 C5.24666667,7.88 4.76,7.68 4.36,7.28 C3.96,6.88 3.76,6.39333333 3.76,5.82 C3.76,5.44666667 3.85333333,5.1 4.04,4.78 C4.22666667,4.46 4.47666667,4.20666667 4.79,4.02 C5.10333333,3.83333333 5.44666667,3.74 5.82,3.74 C6.19333333,3.74 6.54,3.83333333 6.86,4.02 C7.18,4.20666667 7.43333333,4.46 7.62,4.78 C7.80666667,5.1 7.9,5.44666667 7.9,5.82 C7.9,6.19333333 7.80666667,6.53666667 7.62,6.85 C7.43333333,7.16333333 7.18,7.41333333 6.86,7.6 C6.54,7.78666667 6.19333333,7.88 5.82,7.88 Z" id="" fill="#4DB7FE" fill-rule="nonzero"></path>
    </g>
</svg>