<?xml version="1.0" encoding="UTF-8"?>
<svg width="28px" height="28px" viewBox="0 0 28 28" version="1.1" xmlns="http://www.w3.org/2000/svg" xmlns:xlink="http://www.w3.org/1999/xlink">
    <!-- Generator: Sketch 64 (93537) - https://sketch.com -->
    <title>icon--9</title>
    <desc>Created with Sketch.</desc>
    <g id="icon--9" stroke="none" stroke-width="1" fill="none" fill-rule="evenodd">
        <path d="M5.25,28 C5.77864583,28 6.24804688,27.858724 6.65820312,27.5761719 C7.06835938,27.2936198 7.37369792,26.9335938 7.57421875,26.4960938 L7.62890625,26.4960938 L7.62890625,26.4960938 C7.64713542,26.5143229 7.67447917,26.5279948 7.7109375,26.5371094 C7.74739583,26.546224 7.79296875,26.5507812 7.84765625,26.5507812 L7.875,26.5507812 L7.875,26.5507812 C8.13020833,26.6236979 8.52669271,26.7239583 9.06445312,26.8515625 C9.60221354,26.9791667 10.390625,27.1614583 11.4296875,27.3984375 C11.6484375,27.453125 12.2682292,27.5670573 13.2890625,27.7402344 C14.3098958,27.9134115 15.4309896,28 16.6523438,28 L21.4375,28 C22.1666667,28 22.7910156,27.858724 23.3105469,27.5761719 C23.8300781,27.2936198 24.2447917,26.8697917 24.5546875,26.3046875 C24.5729167,26.3046875 24.6230469,26.2135417 24.7050781,26.03125 C24.7871094,25.8489583 24.8645833,25.6302083 24.9375,25.375 C25.0104167,25.1744792 25.0514323,24.9375 25.0605469,24.6640625 C25.0696615,24.390625 25.0377604,24.1171875 24.9648438,23.84375 C25.4388021,23.515625 25.7714844,23.1328125 25.9628906,22.6953125 C26.1542969,22.2578125 26.3046875,21.8841146 26.4140625,21.5742188 C26.578125,21.0455729 26.6464844,20.5852865 26.6191406,20.1933594 C26.5917969,19.8014323 26.5234375,19.46875 26.4140625,19.1953125 C26.6692708,18.9401042 26.9016927,18.6165365 27.1113281,18.2246094 C27.3209635,17.8326823 27.4713542,17.3450521 27.5625,16.7617188 C27.6354167,16.3971354 27.639974,16.0371094 27.5761719,15.6816406 C27.5123698,15.3261719 27.3984375,14.9934896 27.234375,14.6835938 C27.4713542,14.4101562 27.6490885,14.1048177 27.7675781,13.7675781 C27.8860677,13.4303385 27.9544271,13.1067708 27.9726562,12.796875 L28,12.6054688 L28,12.1679688 L28,12.1679688 C28,11.6210938 27.7994792,11.046875 27.3984375,10.4453125 C26.9973958,9.84375 26.3684896,9.41536458 25.5117188,9.16015625 C24.9648438,9.01432292 24.0625,8.92773438 22.8046875,8.90039062 C21.546875,8.87304688 19.9791667,8.83203125 18.1015625,8.77734375 C18.1927083,8.37630208 18.2519531,7.96158854 18.2792969,7.53320312 C18.3066406,7.10481771 18.3203125,6.5625 18.3203125,5.90625 C18.3203125,5.12239583 18.188151,4.375 17.9238281,3.6640625 C17.6595052,2.953125 17.3222656,2.32421875 16.9121094,1.77734375 C16.5019531,1.23046875 16.0416667,0.797526042 15.53125,0.478515625 C15.0208333,0.159505208 14.5104167,0 14,0 C13.2890625,0 12.6783854,0.255208333 12.1679688,0.765625 C11.6575521,1.27604167 11.3932292,1.88671875 11.375,2.59765625 C11.3567708,3.49088542 11.1380208,4.58007812 10.71875,5.86523438 C10.2994792,7.15039062 9.3515625,8.17578125 7.875,8.94140625 C7.765625,9.01432292 7.59700521,9.10546875 7.36914062,9.21484375 C7.14127604,9.32421875 7,9.38802083 6.9453125,9.40625 L7,9.4609375 C6.76302083,9.26041667 6.49414062,9.09179688 6.19335938,8.95507812 C5.89257812,8.81835938 5.578125,8.75 5.25,8.75 L2.625,8.75 C1.89583333,8.75 1.27604167,9.00520833 0.765625,9.515625 C0.255208333,10.0260417 0,10.6458333 0,11.375 L0,25.375 C0,26.1041667 0.255208333,26.7239583 0.765625,27.234375 C1.27604167,27.7447917 1.89583333,28 2.625,28 L5.25,28 Z M21.4375,26.25 L16.6523438,26.25 C15.4492188,26.25 14.3463542,26.1588542 13.34375,25.9765625 C12.3411458,25.7942708 11.8307292,25.703125 11.8125,25.703125 C9.98958333,25.2838542 8.88671875,25.0240885 8.50390625,24.9238281 C8.12109375,24.8235677 7.86588542,24.7552083 7.73828125,24.71875 C7.73828125,24.71875 7.61523438,24.6731771 7.36914062,24.5820312 C7.12304688,24.4908854 7,24.28125 7,23.953125 L7,11.8671875 C7,11.6666667 7.06380208,11.4798177 7.19140625,11.3066406 C7.31901042,11.1334635 7.48307292,11.0195312 7.68359375,10.9648438 C7.72005208,10.9466146 7.75651042,10.9329427 7.79296875,10.9238281 C7.82942708,10.9147135 7.85677083,10.9010417 7.875,10.8828125 C8.87760417,10.4817708 9.71158854,9.96223958 10.3769531,9.32421875 C11.0423177,8.68619792 11.5755208,7.99804688 11.9765625,7.25976562 C12.3776042,6.52148438 12.6692708,5.75130208 12.8515625,4.94921875 C13.0338542,4.14713542 13.125,3.37239583 13.125,2.625 C13.125,2.42447917 13.202474,2.22851562 13.3574219,2.03710938 C13.5123698,1.84570312 13.7265625,1.75 14,1.75 C14.4557292,1.75 14.9980469,2.15559896 15.6269531,2.96679688 C16.2558594,3.77799479 16.5703125,4.7578125 16.5703125,5.90625 C16.5703125,6.9453125 16.5247396,7.70182292 16.4335938,8.17578125 C16.3424479,8.64973958 16.1145833,9.42447917 15.75,10.5 C20.125,10.5 22.6998698,10.5273438 23.4746094,10.5820312 C24.249349,10.6367188 24.828125,10.71875 25.2109375,10.828125 C25.6848958,10.9739583 25.9765625,11.2018229 26.0859375,11.5117188 C26.1953125,11.8216146 26.25,12.0403646 26.25,12.1679688 L26.25,12.4414062 L26.25,12.4414062 L26.245625,12.5114062 C26.24125,12.5595312 26.2335938,12.6273437 26.2226562,12.7148438 C26.2226562,12.9335938 26.1269531,13.202474 25.9355469,13.5214844 C25.7441406,13.8404948 25.265625,14 24.5,14 L22.75,14 L22.75,14 C22.6223958,14 22.5175781,14.0410156 22.4355469,14.1230469 C22.3535156,14.2050781 22.3125,14.3098958 22.3125,14.4375 C22.3125,14.5651042 22.3535156,14.6699219 22.4355469,14.7519531 C22.5175781,14.8339844 22.6223958,14.875 22.75,14.875 L24.4453125,14.875 L24.4453125,14.875 C25.1015625,14.875 25.5117188,15.0800781 25.6757812,15.4902344 C25.8398438,15.9003906 25.8945312,16.2330729 25.8398438,16.4882812 C25.7851562,16.8164062 25.6438802,17.2128906 25.4160156,17.6777344 C25.188151,18.1425781 24.7005208,18.375 23.953125,18.375 L21.875,18.375 L21.875,18.375 C21.7473958,18.375 21.6425781,18.4160156 21.5605469,18.4980469 C21.4785156,18.5800781 21.4375,18.6848958 21.4375,18.8125 C21.4375,18.9401042 21.4785156,19.0449219 21.5605469,19.1269531 C21.6425781,19.2089844 21.7473958,19.25 21.875,19.25 L23.5976562,19.25 L23.5976562,19.25 C24.3450521,19.25 24.7460938,19.4641927 24.8007812,19.8925781 C24.8554688,20.3209635 24.8372396,20.7083333 24.7460938,21.0546875 C24.6002604,21.4921875 24.4088542,21.8841146 24.171875,22.2304688 C23.9348958,22.5768229 23.3515625,22.75 22.421875,22.75 L21,22.75 L21,22.75 C20.8723958,22.75 20.7675781,22.7910156 20.6855469,22.8730469 C20.6035156,22.9550781 20.5625,23.0598958 20.5625,23.1875 C20.5625,23.3151042 20.6035156,23.4199219 20.6855469,23.5019531 C20.7675781,23.5839844 20.8723958,23.625 21,23.625 L22.3671875,23.625 L22.3671875,23.625 C22.8411458,23.625 23.1236979,23.7890625 23.2148438,24.1171875 C23.3059896,24.4453125 23.3242188,24.6914062 23.2695312,24.8554688 C23.2148438,25.0377604 23.1601562,25.188151 23.1054688,25.3066406 C23.0507812,25.4251302 23.0234375,25.484375 23.0234375,25.484375 C22.8958333,25.7213542 22.7135417,25.9082031 22.4765625,26.0449219 C22.2395833,26.1816406 21.8932292,26.25 21.4375,26.25 Z M5.25,26.25 L2.625,26.25 C2.38802083,26.25 2.18294271,26.1634115 2.00976562,25.9902344 C1.83658854,25.8170573 1.75,25.6119792 1.75,25.375 L1.75,11.375 C1.75,11.1380208 1.83658854,10.9329427 2.00976562,10.7597656 C2.18294271,10.5865885 2.38802083,10.5 2.625,10.5 L5.25,10.5 C5.48697917,10.5 5.69205729,10.5865885 5.86523438,10.7597656 C6.03841146,10.9329427 6.125,11.1380208 6.125,11.375 L6.125,25.375 C6.125,25.6119792 6.03841146,25.8170573 5.86523438,25.9902344 C5.69205729,26.1634115 5.48697917,26.25 5.25,26.25 Z M3.9375,25.375 C4.30208333,25.375 4.61197917,25.2473958 4.8671875,24.9921875 C5.12239583,24.7369792 5.25,24.4270833 5.25,24.0625 C5.25,23.6979167 5.12239583,23.3880208 4.8671875,23.1328125 C4.61197917,22.8776042 4.30208333,22.75 3.9375,22.75 C3.57291667,22.75 3.26302083,22.8776042 3.0078125,23.1328125 C2.75260417,23.3880208 2.625,23.6979167 2.625,24.0625 C2.625,24.4270833 2.75260417,24.7369792 3.0078125,24.9921875 C3.26302083,25.2473958 3.57291667,25.375 3.9375,25.375 Z M3.9375,24.5 C3.80989583,24.5 3.70507812,24.4589844 3.62304688,24.3769531 C3.54101562,24.2949219 3.5,24.1901042 3.5,24.0625 C3.5,23.9348958 3.54101562,23.8300781 3.62304688,23.7480469 C3.70507812,23.6660156 3.80989583,23.625 3.9375,23.625 C4.06510417,23.625 4.16992188,23.6660156 4.25195312,23.7480469 C4.33398438,23.8300781 4.375,23.9348958 4.375,24.0625 C4.375,24.1901042 4.33398438,24.2949219 4.25195312,24.3769531 C4.16992188,24.4589844 4.06510417,24.5 3.9375,24.5 Z" id="î¤" fill="#FFFFFF" fill-rule="nonzero"></path>
    </g>
</svg>