<?xml version="1.0" encoding="UTF-8"?>
<svg width="21px" height="18px" viewBox="0 0 21 18" version="1.1" xmlns="http://www.w3.org/2000/svg" xmlns:xlink="http://www.w3.org/1999/xlink">
    <!-- Generator: Sketch 64 (93537) - https://sketch.com -->
    <title>icon--8</title>
    <desc>Created with Sketch.</desc>
    <g id="icon--8" stroke="none" stroke-width="1" fill="none" fill-rule="evenodd">
        <path d="M14.109375,9.9375 C15.453125,9.9375 16.6171875,9.453125 17.6015625,8.484375 C18.5859375,7.515625 19.078125,6.34375 19.078125,4.96875 C19.078125,3.59375 18.5859375,2.421875 17.6015625,1.453125 C16.6171875,0.484375 15.453125,0 14.109375,0 C12.328125,0 10.9375,0.765625 9.9375,2.296875 C11.5,3.171875 12.484375,4.53125 12.890625,6.375 L12.890625,6.375 L17.578125,6.375 C17.296875,7.0625 16.84375,7.625 16.21875,8.0625 C15.59375,8.5 14.890625,8.71875 14.109375,8.71875 C13.671875,8.71875 13.28125,8.65625 12.9375,8.53125 C12.90625,8.8125 12.796875,9.203125 12.609375,9.703125 C13.140625,9.859375 13.640625,9.9375 14.109375,9.9375 Z M6.890625,12.5625 C8.234375,12.5625 9.3984375,12.078125 10.3828125,11.109375 C11.3671875,10.140625 11.859375,8.96875 11.859375,7.59375 C11.859375,6.21875 11.3671875,5.046875 10.3828125,4.078125 C9.3984375,3.109375 8.234375,2.625 6.890625,2.625 C5.546875,2.625 4.375,3.109375 3.375,4.078125 C2.40625,5.046875 1.921875,6.21875 1.921875,7.59375 C1.921875,8.96875 2.4140625,10.140625 3.3984375,11.109375 C4.3828125,12.078125 5.546875,12.5625 6.890625,12.5625 Z M6.890625,11.390625 C6.109375,11.390625 5.40625,11.171875 4.78125,10.734375 C4.15625,10.265625 3.703125,9.6875 3.421875,9 L3.421875,9 L10.359375,9 C10.078125,9.6875 9.625,10.2578125 9,10.7109375 C8.375,11.1640625 7.671875,11.390625 6.890625,11.390625 Z M21,15 C20.375,12.625 19.015625,11.125 16.921875,10.5 C16.015625,11 15.078125,11.25 14.109375,11.25 C13.453125,11.25 12.796875,11.125 12.140625,10.875 C11.734375,11.59375 11.296875,12.140625 10.828125,12.515625 C11.890625,12.921875 12.828125,13.75 13.640625,15 L13.640625,15 L21,15 Z M13.78125,18 C13.5,16.90625 13.0078125,15.8984375 12.3046875,14.9765625 C11.6015625,14.0546875 10.734375,13.4375 9.703125,13.125 C8.796875,13.625 7.859375,13.875 6.890625,13.875 C5.921875,13.875 4.984375,13.625 4.078125,13.125 C3.046875,13.4375 2.1796875,14.0546875 1.4765625,14.9765625 C0.7734375,15.8984375 0.28125,16.90625 0,18 L0,18 L13.78125,18 Z" id="" fill="#2E3782" fill-rule="nonzero"></path>
    </g>
</svg>