<?xml version="1.0" encoding="UTF-8"?>
<svg width="21px" height="18px" viewBox="0 0 21 18" version="1.1" xmlns="http://www.w3.org/2000/svg" xmlns:xlink="http://www.w3.org/1999/xlink">
    <!-- Generator: Sketch 64 (93537) - https://sketch.com -->
    <title>icon--6</title>
    <desc>Created with Sketch.</desc>
    <g id="icon--6" stroke="none" stroke-width="1" fill="none" fill-rule="evenodd">
        <path d="M20.34375,18 C20.4375,18 20.546875,17.96875 20.671875,17.90625 C20.890625,17.78125 21,17.5625 21,17.25 L21,17.25 L21,4.078125 C21,3.796875 20.890625,3.578125 20.671875,3.421875 L20.671875,3.421875 L15.796875,0.09375 C15.578125,-0.03125 15.34375,-0.03125 15.09375,0.09375 L15.09375,0.09375 L10.5,3.1875 L5.953125,0.09375 C5.734375,-0.03125 5.5,-0.03125 5.25,0.09375 L5.25,0.09375 L0.328125,3.421875 C0.109375,3.578125 0,3.796875 0,4.078125 L0,4.078125 L0,17.25 C0,17.53125 0.125,17.75 0.375,17.90625 C0.625,18.03125 0.859375,18.03125 1.078125,17.90625 L1.078125,17.90625 L5.625,14.8125 L10.171875,17.90625 C10.390625,18.03125 10.625,18.03125 10.875,17.90625 L10.875,17.90625 L15.421875,14.8125 L19.96875,17.90625 C20.03125,17.96875 20.15625,18 20.34375,18 Z M1.5,15.890625 L1.5,4.546875 L4.828125,2.203125 L4.828125,13.546875 L1.5,15.890625 Z M9.75,15.84375 L6.328125,13.546875 L6.328125,7.78125 C6.359375,7.78125 6.390625,7.796875 6.421875,7.828125 L6.421875,7.828125 L6.46875,7.875 L6.9375,7.265625 C6.875,7.234375 6.671875,7.125 6.328125,6.9375 L6.328125,6.9375 L6.328125,2.203125 L9.75,4.5 L9.75,9.609375 C9.5,9.515625 9.25,9.390625 9,9.234375 L9,9.234375 L8.625,9.84375 C9.09375,10.125 9.40625,10.28125 9.5625,10.3125 L9.5625,10.3125 L9.75,9.796875 L9.75,15.84375 Z M11.25,15.84375 L11.25,10.5 L11.296875,10.5 C11.3125,10.5 11.3359375,10.4980469 11.3671875,10.4941406 L11.484375,10.4765625 C11.578125,10.4609375 11.65625,10.453125 11.71875,10.453125 L11.71875,10.453125 L11.578125,9.75 L11.25,9.75 L11.25,4.5 L14.671875,2.203125 L14.671875,7.78125 L14.4375,7.546875 C14.375,7.609375 14.3125,7.6953125 14.25,7.8046875 C14.1875,7.9140625 14.125,7.984375 14.0625,8.015625 L14.0625,8.015625 L13.78125,8.296875 L14.34375,8.8125 L14.625,8.53125 L14.625,8.484375 L14.671875,8.4375 L14.671875,13.546875 L11.25,15.84375 Z M19.5,15.84375 L16.171875,13.546875 L16.171875,7.125 C16.234375,7.09375 16.34375,7.0625 16.5,7.03125 L16.5,7.03125 L16.734375,6.984375 L16.546875,6.234375 C16.515625,6.265625 16.4609375,6.28125 16.3828125,6.28125 C16.3046875,6.28125 16.234375,6.296875 16.171875,6.328125 L16.171875,6.328125 L16.171875,2.203125 L19.5,4.5 L19.5,15.84375 Z M18.609375,7.78125 L19.125,7.21875 L18.65625,6.75 L19.125,6.28125 L18.609375,5.71875 L18.09375,6.234375 L17.625,5.71875 L17.109375,6.28125 L17.578125,6.75 L17.109375,7.21875 L17.625,7.78125 L18.09375,7.265625 L18.609375,7.78125 Z M3.890625,7.6875 C4.109375,7.53125 4.328125,7.421875 4.546875,7.359375 C4.578125,7.328125 4.5859375,7.3125 4.5703125,7.3125 C4.56510417,7.30208333 4.57291667,7.28645833 4.59375,7.265625 L4.59375,7.265625 L4.359375,6.5625 C4.171875,6.625 4.03125,6.6875 3.9375,6.75 C3.8125,6.8125 3.625,6.9375 3.375,7.125 L3.375,7.125 L3.890625,7.6875 Z M3.140625,9.046875 L3.140625,9 C3.265625,8.625 3.375,8.375 3.46875,8.25 L3.46875,8.25 L2.859375,7.828125 C2.703125,8.078125 2.5625,8.390625 2.4375,8.765625 L2.4375,8.765625 L2.4375,8.8125 L3.140625,9.046875 Z M7.78125,9.234375 L8.296875,8.671875 C8.109375,8.515625 7.9375,8.34375 7.78125,8.15625 C7.71875,8.0625 7.671875,8 7.640625,7.96875 L7.640625,7.96875 L7.078125,8.484375 L7.21875,8.625 C7.28125,8.6875 7.375,8.7890625 7.5,8.9296875 C7.625,9.0703125 7.71875,9.171875 7.78125,9.234375 L7.78125,9.234375 Z M12.75,10.171875 C13.09375,10.015625 13.390625,9.8125 13.640625,9.5625 L13.640625,9.5625 L13.125,9 C13.0625,9.0625 12.828125,9.21875 12.421875,9.46875 L12.421875,9.46875 L12.75,10.171875 Z" id="" fill="#2E3782" fill-rule="nonzero"></path>
    </g>
</svg>