<?xml version="1.0" encoding="UTF-8"?>
<svg width="16px" height="28px" viewBox="0 0 16 28" version="1.1" xmlns="http://www.w3.org/2000/svg" xmlns:xlink="http://www.w3.org/1999/xlink">
    <!-- Generator: Sketch 64 (93537) - https://sketch.com -->
    <title>icon--11</title>
    <desc>Created with Sketch.</desc>
    <g id="icon--11" stroke="none" stroke-width="1" fill="none" fill-rule="evenodd">
        <path d="M7.9296875,28 C10.0807292,28 11.921875,27.234375 13.453125,25.703125 C14.984375,24.171875 15.75,22.3307292 15.75,20.1796875 L15.75,7.8203125 C15.75,5.66927083 14.984375,3.828125 13.453125,2.296875 C11.921875,0.765625 10.0807292,0 7.9296875,0 C5.76041667,0 3.89648438,0.765625 2.33789062,2.296875 C0.779296875,3.828125 0,5.66927083 0,7.8203125 L0,20.1796875 C0,22.3307292 0.779296875,24.171875 2.33789062,25.703125 C3.89648438,27.234375 5.76041667,28 7.9296875,28 Z M7.9296875,26.25 C6.234375,26.25 4.78059896,25.6529948 3.56835938,24.4589844 C2.35611979,23.264974 1.75,21.8385417 1.75,20.1796875 L1.75,7.8203125 C1.75,6.16145833 2.35611979,4.73502604 3.56835938,3.54101562 C4.78059896,2.34700521 6.234375,1.75 7.9296875,1.75 C9.60677083,1.75 11.0377604,2.34244792 12.2226562,3.52734375 C13.4075521,4.71223958 14,6.14322917 14,7.8203125 L14,20.1796875 C14,21.8567708 13.4075521,23.2877604 12.2226562,24.4726562 C11.0377604,25.6575521 9.60677083,26.25 7.9296875,26.25 Z M7.88867188,11.375 C8.13476562,11.375 8.33984375,11.2884115 8.50390625,11.1152344 C8.66796875,10.9420573 8.75,10.7369792 8.75,10.5 L8.75,6.125 C8.75,5.88802083 8.66796875,5.6875 8.50390625,5.5234375 C8.33984375,5.34114583 8.13476562,5.25 7.88867188,5.25 C7.64257812,5.25 7.43294271,5.33658854 7.25976562,5.50976562 C7.08658854,5.68294271 7,5.88802083 7,6.125 L7,10.5 C7,10.7369792 7.08658854,10.9420573 7.25976562,11.1152344 C7.43294271,11.2884115 7.64257812,11.375 7.88867188,11.375 Z" id="" fill="#4DB7FE" fill-rule="nonzero"></path>
    </g>
</svg>