<?xml version="1.0" encoding="UTF-8"?>
<svg width="74px" height="74px" viewBox="0 0 74 74" version="1.1" xmlns="http://www.w3.org/2000/svg" xmlns:xlink="http://www.w3.org/1999/xlink">
    <!-- Generator: Sketch 64 (93537) - https://sketch.com -->
    <title>fal fa-map-marker-alt before-reset</title>
    <desc>Created with Sketch.</desc>
    <g id="fal-fa-map-marker-alt-before-reset" stroke="none" stroke-width="1" fill="none" fill-rule="evenodd">
        <g fill="#4DB7FE" fill-rule="nonzero">
            <path d="M55.7740969,63.8987109 C52.9878235,63.8987109 50.7209953,66.1643828 50.7209953,68.9492109 C50.7209953,71.7341836 52.9876789,73.9998555 55.7740969,73.9998555 C58.5603703,73.9998555 60.8271985,71.7341836 60.8271985,68.9492109 C60.8270539,66.1645273 58.5603703,63.8987109 55.7740969,63.8987109 Z" id="Shape"></path>
            <path d="M47.7189368,0.188902344 C41.5782375,-0.529128906 35.2904055,0.815011719 30.015593,3.97330859 C29.3306594,4.38348828 29.1077922,5.27105469 29.5178274,5.95584375 C29.9278625,6.64077734 30.8155735,6.86321094 31.5003625,6.45346484 C41.4228664,0.512363281 54.0707961,2.08067187 62.258636,10.2672109 C68.9044719,16.9058203 71.1546789,26.5214844 68.6288508,35.1595391 C68.2373157,32.9749492 67.2997414,30.9776719 65.9638391,29.3128164 C66.3156282,23.173418 64.0466321,17.1976289 59.6854016,12.8350977 C51.2774407,4.43725391 37.5961125,4.43667578 29.1868508,12.8358203 C25.1148274,16.9072656 22.872136,22.3196719 22.872136,28.0757734 C22.872136,33.8320195 25.1148274,39.2434141 29.1874289,43.313125 C32.6858078,46.8073125 37.3164446,49.0083789 42.2261711,49.5112031 C42.956343,49.5860703 43.6879602,49.6229258 44.4181321,49.6229258 C46.9072493,49.6229258 49.3778664,49.1900547 51.7087219,48.3587109 C51.1516985,49.6359336 50.8798352,50.8030234 50.7751946,52.4509688 C42.1328039,54.692793 32.9586828,52.2253555 26.6143391,45.8852031 C24.4343743,43.7066836 22.7237024,41.2140977 21.498511,38.5420039 C21.4703274,38.4591875 21.4346282,38.3785391 21.3909797,38.3009258 C18.1169133,30.957582 18.4838782,22.2998711 22.8334016,15.0873281 C23.2456047,14.4036953 23.0256282,13.5154062 22.3419953,13.1032031 C21.6583625,12.6907109 20.7699289,12.9109766 20.3578703,13.5946094 C17.176593,18.8701445 15.8165539,25.1641914 16.5286594,31.3174648 C16.8259602,33.8865078 17.4591516,36.357125 18.4078547,38.6884141 L16.7734953,40.3214727 C15.6199914,41.4743984 14.9846321,43.0116328 14.9846321,44.6500391 C14.9846321,45.7353242 15.2648782,46.7752266 15.7882258,47.6892422 L9.86157738,53.6122773 C9.86128832,53.6125664 9.86085472,53.613 9.86042113,53.6132891 L5.85415941,57.6170938 C5.85329222,57.6179609 5.85228051,57.6186836 5.85126879,57.6196953 L2.26906176,61.1998789 C1.06786254,62.4002109 0.406343006,64.0014727 0.406343006,65.7086758 C0.406343006,67.4158789 1.06786254,69.0171406 2.26891722,70.2174727 C3.46982738,71.4175156 5.07152269,72.078457 6.77901488,72.078457 C8.48694066,72.078457 10.0879133,71.4172266 11.2859328,70.2174727 L14.8330188,66.6726992 C14.8464602,66.6602695 14.8604797,66.6489961 14.8736321,66.6359883 C14.8863508,66.6232695 14.8973352,66.6093945 14.9094758,66.5963867 L24.8075539,56.7045234 C25.7468625,57.2420352 26.7986164,57.5120195 27.851093,57.5120195 C29.4194016,57.511875 30.9881438,56.9151055 32.1824055,55.7215664 L33.824136,54.0781016 C37.1795735,55.4465234 40.7781125,56.1563164 44.4218899,56.1563164 C46.5512688,56.1563164 48.6961125,55.9129258 50.8165305,55.4186289 C51.2729602,57.7377773 53.3218352,59.4928203 55.7739524,59.4928203 C58.5602258,59.4928203 60.8270539,57.2271484 60.8270539,54.4421758 C60.8270539,52.5063242 60.8484446,52.4697578 61.9736203,50.5509609 C62.3359602,49.9322227 62.9811477,49.4234727 63.6642024,48.8848047 C63.9430032,48.6648281 64.231343,48.437625 64.5128899,48.1936563 C66.164593,46.7648203 67.1958235,45.2074961 67.8346516,43.6198203 C75.2308938,32.5256016 73.7595657,17.6693789 64.3024524,8.22267188 C59.7859953,3.7069375 54.0514289,0.929046875 47.7189368,0.188902344 Z M17.8603703,59.5604609 L12.9280969,54.6344023 L17.6802844,49.88525 L22.610968,54.8127539 L17.8603703,59.5604609 Z M13.8493391,63.5690352 L8.91851097,58.6415313 L10.8835578,56.6777852 L15.8158313,61.6038438 L13.8493391,63.5690352 Z M9.24139379,68.1739453 C8.5884016,68.8278047 7.71398754,69.187832 6.77901488,69.187832 C5.84331957,69.187832 4.96731566,68.8273711 4.31244457,68.1727891 C3.65771801,67.5184961 3.29711254,66.6433594 3.29711254,65.7086758 C3.29711254,64.7739922 3.65771801,63.8988555 4.3125891,63.2445625 L6.87382738,60.6849141 L11.8046555,65.612418 L9.24139379,68.1739453 Z M30.1381555,53.67775 C28.8774094,54.938207 26.8259328,54.937918 25.5648977,53.67775 L18.8168782,46.9342109 C18.2098469,46.3274688 17.8754016,45.5163594 17.8754016,44.6503281 C17.8754016,43.7844414 18.2098469,42.9731875 18.8168782,42.3664453 L19.7220774,41.4618242 C20.9994446,43.8106016 22.6231086,45.9834844 24.5709563,47.9300312 C26.5176477,49.8754219 28.7041164,51.4921484 31.0505813,52.7643125 L30.1381555,53.67775 Z M31.2305227,41.2682969 C27.7048274,37.7447695 25.76305,33.0596445 25.76305,28.075918 C25.76305,23.0919023 27.7048274,18.4054766 31.2303782,14.8805039 C38.5121516,7.60725781 50.3608235,7.60711328 57.6421633,14.8797812 C60.8191047,18.0574453 62.7134758,22.2250039 63.0532688,26.6337852 C60.9720188,25.231832 58.4670032,24.4124844 55.7742414,24.4124844 C52.2765852,24.4124844 48.9957258,25.7793164 46.536093,28.2613516 C44.0716907,30.7481562 42.7145422,34.0746875 42.7145422,37.6284219 C42.7145422,40.5501211 44.9341086,42.838918 47.7676438,42.838918 C50.5988664,42.838918 52.8165539,40.5502656 52.8165539,37.6284219 C52.8165539,35.8820508 54.1157453,34.513918 55.7742414,34.513918 C57.4051321,34.513918 58.7317844,35.8394141 58.7317844,37.4687148 C58.7317844,39.1172383 58.653593,39.9071016 57.9030422,40.5546016 C57.5685969,40.8439531 57.2517844,41.107 56.9453782,41.3615195 C55.9908938,42.1538398 55.1286203,42.871582 54.2926516,43.9255039 C46.996425,48.4643633 37.334511,47.3644805 31.2305227,41.2682969 L31.2305227,41.2682969 Z" id="Shape"></path>
            <path d="M25.589468,10.6911211 C25.9606243,10.6911211 26.331925,10.5494805 26.6146282,10.2667773 C27.1790227,9.70238281 27.1790227,8.78706641 26.6146282,8.22267187 C26.0500891,7.65842188 25.1350618,7.65842188 24.5705227,8.22267187 L24.5664758,8.22671875 C24.0020813,8.79111328 24.0041047,9.70426172 24.5686438,10.2686563 C24.8503352,10.5504922 25.2197571,10.6911211 25.589468,10.6911211 L25.589468,10.6911211 Z" id="Path"></path>
        </g>
    </g>
</svg>