<?xml version="1.0" encoding="UTF-8"?>
<svg width="56px" height="48px" viewBox="0 0 56 48" version="1.1" xmlns="http://www.w3.org/2000/svg" xmlns:xlink="http://www.w3.org/1999/xlink">
    <!-- Generator: Sketch 64 (93537) - https://sketch.com -->
    <title>trust</title>
    <desc>Created with Sketch.</desc>
    <g id="trust" stroke="none" stroke-width="1" fill="none" fill-rule="evenodd">
        <g id="Group" transform="translate(0.070896, 4.249989)" fill="#46B6FF" fill-rule="nonzero">
            <path d="M2.22702579,11.376261 L2.3183127,11.4582881 L6.4750353,15.5430139 C6.49752153,15.5651198 6.53363198,15.5706438 6.56296361,15.5595623 L6.58927997,15.5429448 L7.88814568,14.2665034 C8.418512,13.7453369 9.27450963,13.7452821 9.80443509,14.2663713 C10.3105983,14.7634151 10.3387692,15.556047 9.88902652,16.0860651 L9.80469915,16.1767581 L9.23554966,16.7353446 L12.2833687,19.7303362 C12.4831322,19.9266346 12.6151533,20.1782047 12.6639645,20.4492336 L12.679744,20.5664758 L12.6850639,20.6854743 L12.6850639,22.7555248 C12.6850639,23.0183828 12.7540823,23.2697304 12.8846039,23.4911326 L12.9549552,23.5992529 L12.9932133,23.6475901 L13.0537129,23.5917949 C14.2969197,22.4883573 16.1743675,22.4515459 17.4596127,23.4814761 L17.5904063,23.5918258 L17.7166732,23.7097862 C17.9011963,23.8911085 18.0619444,24.0904725 18.1973593,24.304038 L18.2941462,24.466815 L18.3694042,24.6122264 L18.5274208,24.5731743 C18.650022,24.545841 18.7743754,24.5252172 18.9000033,24.5114267 L19.0893411,24.4958815 L19.2802323,24.4906791 C20.1830903,24.4906791 21.0351637,24.8374825 21.6749329,25.4661542 C22.3165769,26.0966683 22.6716648,26.9390924 22.6716648,27.8328635 C22.6716648,27.9711817 22.6630622,28.1086759 22.6460275,28.2447172 L22.6141725,28.447611 L22.6057042,28.4825537 L22.636151,28.4947227 C22.8834871,28.6036993 23.1175481,28.7421254 23.3334991,28.9081772 L23.4919913,29.0378674 L23.6432389,29.1777463 C24.0433235,29.570891 24.3324386,30.0473087 24.4929767,30.5683187 L24.5471171,30.7657122 L24.5526497,30.7925264 L24.5892062,30.7945309 C25.2722584,30.83854 25.9302777,31.0844496 26.4746177,31.5109013 L26.6201889,31.6316665 L26.7597236,31.761288 L26.7882497,31.7895628 L26.8008684,31.7507453 C26.8405499,31.6408622 26.8951129,31.5350671 26.964557,31.4364271 L27.0389614,31.3402857 L27.1232865,31.249596 C27.6241318,30.7574385 28.4152529,30.7300964 28.9485035,31.1675698 L29.0398181,31.249596 L32.210583,34.3653607 C32.3446438,34.4970961 32.5214237,34.5690525 32.7129843,34.5690525 C32.904594,34.5690525 33.0814673,34.4970619 33.2156009,34.3652549 C33.4650273,34.1201551 33.4841983,33.7355026 33.2730726,33.4689099 L33.2154932,33.4048704 L30.0447956,30.2891718 C29.5090158,29.7628654 29.5090158,28.9052497 30.0447283,28.3788296 C30.5455736,27.8866721 31.3366947,27.85933 31.8699453,28.2968033 L31.9612599,28.3788296 L35.1320248,31.4945943 C35.2660857,31.6263297 35.4428655,31.6982861 35.6344261,31.6982861 C35.8259867,31.6982861 36.0027665,31.6263297 36.1368274,31.4945943 C36.2691132,31.3646031 36.3401849,31.196023 36.3401849,31.0143492 C36.3401849,30.8630274 36.2908902,30.7208181 36.1981031,30.6025191 L36.1372582,30.5345273 L32.9661297,27.4184054 C32.4303499,26.892099 32.4303499,26.0344833 32.9660625,25.5080632 C33.4669077,25.0159056 34.2580288,24.9885636 34.7912794,25.4260369 L34.8825941,25.5080632 L38.0534454,28.6239129 C38.3289018,28.8947101 38.7825503,28.8946915 39.0583769,28.6238279 C39.3078032,28.3787281 39.3269743,27.9940756 39.1158485,27.727483 L39.0582692,27.6634434 L33.3522305,22.0563818 C32.8164507,21.5300754 32.8164507,20.6724597 33.3521632,20.1460396 C33.8530084,19.6538821 34.6441296,19.62654 35.1773802,20.0640134 L35.2686948,20.1460396 L40.7806315,25.5628719 L44.803214,21.6110952 C45.2747385,21.147908 46.0032279,21.0965292 46.5319286,21.456877 L46.6286072,21.5292671 L46.7199342,21.6113069 C47.2259485,22.108374 47.2540604,22.9009609 46.8043266,23.4309594 L46.7200015,23.5216491 L41.9779588,28.1806446 L41.9770592,28.2789197 C41.9483653,28.9992463 41.6882109,29.69411 41.2239758,30.2616593 L41.1036812,30.4008353 L40.9749783,30.5343529 C40.5022462,30.9987957 39.9140234,31.3081535 39.2818845,31.4423488 L39.090997,31.4773324 L39.0258769,31.4847082 L39.017834,31.5486189 C38.9249686,32.1264913 38.6818891,32.6676177 38.3084876,33.1253749 L38.179221,33.2748089 L38.0534667,33.4049763 C37.5809221,33.869324 36.9927174,34.1786762 36.3556622,34.3128687 L36.1631469,34.3478515 L36.1032497,34.3550537 L36.1021414,34.3680411 C36.0166106,34.9570656 35.7749426,35.5159755 35.3936055,35.9877349 L35.2613428,36.1416819 L35.1322402,36.2756368 C34.6621901,36.7375335 34.0787583,37.048796 33.4446477,37.1842196 L33.2529568,37.2195464 L33.1813588,37.2283446 L33.1805166,37.2400189 C33.0948369,37.8286932 32.853205,38.3871882 32.4720599,38.8586414 L32.3398669,39.0124907 L32.2108375,39.1463649 C31.5646277,39.7814915 30.703932,40.1318264 29.7918656,40.1318264 C28.9406036,40.1318264 28.1340912,39.8266458 27.5049788,39.2696048 L27.3729327,39.1464033 L25.7654406,37.5670719 L24.6381619,38.6752445 C24.0869762,39.2168693 23.3782079,39.5492779 22.615145,39.6309456 L22.4233079,39.6461148 L22.2434613,39.6507196 C21.4008786,39.6507196 20.60246,39.3486051 19.9796028,38.7971993 L19.8488684,38.6752445 L19.8001885,38.627409 C19.319299,38.154861 19.00272,37.5625009 18.8725891,36.9262565 L18.8406769,36.7438173 L18.7924608,36.7379581 C18.2172934,36.6490498 17.6721072,36.4156903 17.2098123,36.0527129 L17.0588567,35.9269401 L16.9273189,35.8043723 C16.4467697,35.3321587 16.1303031,34.7402204 16.0000503,34.1043913 L15.9681224,33.9220719 L15.914954,33.9158174 C15.3367501,33.8259719 14.7946954,33.5907148 14.3353209,33.2287482 L14.1853222,33.1034254 L14.0545965,32.9814803 C13.5879324,32.5230029 13.2728344,31.9523761 13.1356734,31.3314069 L13.0998896,31.1436677 L13.0933588,31.097381 L13.0467219,31.0920967 C12.4715556,31.0031894 11.9263739,30.7698342 11.4640983,30.4068758 L11.3131497,30.28111 L11.1816192,30.1585494 C10.539956,29.5281431 10.1848477,28.685704 10.1848477,27.791907 C10.1848477,27.0173461 10.4516135,26.2813071 10.9404597,25.6883368 L11.0580497,25.5525628 L10.9255698,25.4014227 C10.3929218,24.7639013 10.067685,23.9921928 9.98563058,23.1702109 L9.97020398,22.9637166 L9.96503417,22.755419 L9.96454966,21.2455719 L6.89612239,18.2301628 L6.87073157,18.2347549 L6.70112275,18.2507832 L6.53201481,18.2561758 C5.85399697,18.2561758 5.19820136,18.0160875 4.68404421,17.5692124 L4.55852483,17.4532049 L0.401776008,13.3685592 C-0.10416415,12.871395 -0.132271937,12.0789435 0.317452649,11.5489696 L0.401843236,11.458217 C0.902795953,10.9661218 1.69392305,10.9387832 2.22702579,11.376261 Z M27.7823406,33.8071992 L27.7945387,33.9281377 C27.8287355,34.3819959 27.7694888,34.8429915 27.6141112,35.2809207 L27.5416274,35.4671043 L27.5253497,35.5030446 L29.2892489,37.2360213 C29.3786228,37.3238449 29.4869829,37.3851 29.6060512,37.4161786 L29.6972309,37.4337731 L29.7916502,37.4397131 C29.9832107,37.4397131 30.1599906,37.3677567 30.2940947,37.2359788 C30.5435654,36.9908892 30.5627555,36.6062659 30.3516308,36.3396762 L30.2940514,36.2756368 L27.7823406,33.8071992 Z M24.3651307,33.4784554 C24.2152335,33.4784554 24.0715934,33.5256426 23.9541237,33.6138131 L23.8869417,33.6715837 L21.7165679,35.8045218 C21.4810729,36.0358797 21.4614483,36.3978135 21.6577284,36.6509677 L21.7166124,36.7171329 L21.7652764,36.7649528 C21.8927131,36.8902373 22.0609268,36.9587121 22.2432459,36.9587121 C22.3952095,36.9587121 22.5372524,36.9111919 22.6542414,36.8227706 L22.7213072,36.7648626 L24.8918087,34.6320107 C25.1273037,34.4006528 25.1469283,34.038719 24.9506482,33.7855648 L24.8917642,33.7193996 L24.843192,33.6716699 C24.7157695,33.5464576 24.5448249,33.4784554 24.3651307,33.4784554 Z M21.2486461,30.894808 C21.0987581,30.894808 20.9551175,30.9419896 20.8376606,31.0301452 L20.7704881,31.0879058 L18.8436351,32.9814414 C18.5867798,33.2338412 18.5867798,33.6416963 18.8436351,33.8940962 C19.0840155,34.1303069 19.4668734,34.1499758 19.7309775,33.9530635 L19.7998654,33.8939903 L21.7270463,32.0002383 C21.852568,31.8768365 21.9199411,31.7169108 21.9199411,31.5443498 C21.9199411,31.371754 21.8524069,31.2115416 21.7267074,31.0880225 C21.5992848,30.9628102 21.4283402,30.894808 21.2486461,30.894808 Z M19.2802323,27.1826866 C19.1282686,27.1826866 18.9862257,27.2302068 18.8692368,27.3186281 L18.802171,27.3765361 L15.9709809,30.1586163 C15.8452813,30.2821355 15.7777471,30.4423479 15.7777471,30.6149437 C15.7777471,30.7875939 15.8452123,30.9476841 15.9708732,31.0711653 C16.0984476,31.1965268 16.2667092,31.2650148 16.4490422,31.2650148 C16.6010081,31.2650148 16.743087,31.2174907 16.8600566,31.1291325 L16.9271035,31.0712711 L19.7582936,28.2891909 C19.8839932,28.1656717 19.9515274,28.0054594 19.9515274,27.8328635 C19.9515274,27.6602677 19.8839932,27.5000553 19.7582018,27.3764459 C19.6307324,27.2511293 19.462613,27.1826866 19.2802323,27.1826866 Z M15.3220803,25.4268478 C15.1722629,25.4268478 15.0286137,25.4740652 14.9110513,25.5623317 L14.8438036,25.6201681 L13.0981113,27.3355796 C12.972379,27.459131 12.9048775,27.619251 12.9048775,27.791907 C12.9048775,27.9645571 12.9723427,28.1246474 13.0979591,28.2480849 C13.3384788,28.4843791 13.7213428,28.5041009 13.9854522,28.3072813 L14.0543416,28.2482344 L15.8001861,26.5326734 C16.0569969,26.2803742 16.0569969,25.8725191 15.8001416,25.6200623 C15.6726572,25.4947892 15.5018426,25.4268478 15.3220803,25.4268478 Z M13.6305173,0.38784301 C14.1590119,-0.129259029 15.0106487,-0.129259029 15.538963,0.38784301 L15.538963,0.38784301 L18.7616137,3.5421006 C19.5579819,4.32145445 19.7828664,5.47822546 19.3890825,6.47253071 L19.3890825,6.47253071 L19.3833769,6.48442642 L20.0033951,7.09119006 L22.0331276,7.84824835 C22.7395326,8.11171707 23.3785714,8.49631847 23.9346324,8.99233381 L23.9346324,8.99233381 L24.1392352,9.1835431 L24.5659042,9.6014537 L32.0728222,9.60181832 C32.5100094,9.60181832 32.9430306,9.69813169 33.3370788,9.88201872 L33.3370788,9.88201872 L33.503469,9.96616362 L35.869086,11.2575355 L38.1473951,9.07127188 L38.0953509,8.9516232 C38.0174519,8.75464679 37.9683624,8.54681245 37.9501887,8.3332081 L37.9501887,8.3332081 L37.942388,8.17200246 C37.9352568,7.56517417 38.1738176,6.9920495 38.6104354,6.56455886 L38.6104354,6.56455886 L44.9212542,0.387777098 C45.4496815,-0.129259029 46.3013183,-0.129259029 46.8295652,0.387777075 C47.3645815,0.911260134 47.3645815,1.76523493 46.8296292,2.28883411 L46.8296292,2.28883411 L40.8520588,8.13829915 L50.8423042,17.4783355 L53.549658,14.8289058 C54.0487088,14.3404462 54.8361182,14.313358 55.3672189,14.7475595 L55.3672189,14.7475595 L55.458171,14.8289718 C55.9928894,15.3525208 55.9928894,16.2061309 55.4580896,16.730117 L55.4580896,16.730117 L52.44837,19.6757528 C52.0204647,20.094712 51.4449762,20.3211966 50.8489587,20.3211966 C50.5273898,20.3211966 50.2103424,20.2544582 49.9159588,20.1248264 L49.9159588,20.1248264 L48.9161555,21.104074 C48.6910297,21.324422 48.4004428,21.4561171 48.0940254,21.4855979 L48.0940254,21.4855979 L47.9618791,21.491935 C47.6076209,21.491935 47.2647793,21.3558597 47.0078445,21.1042058 C46.472671,20.5807476 46.4726142,19.7267209 47.0076027,19.2030862 L47.0076027,19.2030862 L47.8556133,18.3730173 L39.9986133,11.0263173 L37.2296347,13.6849382 C36.7202878,14.1721384 35.9554422,14.2968892 35.318903,14.0102791 L35.318903,14.0102791 L35.2011492,13.9517071 L32.1915333,12.3088239 C32.1558088,12.2893092 32.1142939,12.2787377 32.0727151,12.2787377 L32.0727151,12.2787377 L24.0085743,12.2787377 C23.990891,12.2787377 23.9777241,12.2840764 23.9668735,12.2947066 L23.9668735,12.2947066 L20.9122386,15.2846189 C20.7153245,15.4772858 20.6087145,15.7291983 20.6087145,15.9992931 C20.6087145,16.2693603 20.7153079,16.521216 20.9123084,16.7140357 C21.2984446,17.0919771 21.9084885,17.1210556 22.3313012,16.7809505 L22.3313012,16.7809505 L24.864867,14.742279 C25.1069234,14.5473767 25.4095226,14.4412545 25.7212686,14.4412545 L25.7212686,14.4412545 L29.6395627,14.4412545 C30.3855757,14.4412545 30.994962,15.037763 30.994962,15.7796094 C30.994962,15.8662105 30.9864975,15.9516617 30.9700356,16.035044 L30.9700356,16.035044 L30.9626951,16.0615719 L32.6902534,17.7521222 C33.1955466,18.2465229 33.2236184,19.035714 32.7745257,19.5629642 L32.7745257,19.5629642 L32.6903208,19.653176 C32.4330342,19.9050022 32.0902474,20.0410369 31.7360444,20.0410369 C31.3819513,20.0410369 31.0391954,19.9049681 30.781768,19.653176 L30.781768,19.653176 L28.1917588,17.1175173 L26.2035769,17.1175173 L24.0438349,18.855933 C23.4131674,19.3634253 22.6490588,19.6503407 21.8572115,19.6914786 L21.8572115,19.6914786 L21.6587329,19.6966281 C20.6718336,19.6966281 19.7199665,19.3159297 19.0038278,18.6149894 C18.2919362,17.9180828 17.8980229,16.9871662 17.8980229,15.9991883 C17.8980229,15.011119 18.2920053,14.0800847 19.0039559,13.3833667 L19.0039559,13.3833667 L21.7493133,10.6949537 L21.5958046,10.5994286 C21.4860384,10.5349822 21.3722565,10.4768279 21.2546336,10.4250871 L21.2546336,10.4250871 L21.0753404,10.3523012 L18.7742825,9.49422143 C18.5963804,9.42777841 18.4344248,9.32513637 18.2991458,9.19272835 L18.2991458,9.19272835 L17.6242042,8.5322537 L12.2121984,13.8299842 C11.9870726,14.0503322 11.6964857,14.1820272 11.3900683,14.2115081 L11.3900683,14.2115081 L11.257922,14.2178452 C10.9038289,14.2178452 10.5610729,14.0817763 10.303713,13.8300501 C9.76869668,13.3065671 9.76869668,12.4525923 10.3036456,11.9289964 L10.3036456,11.9289964 L16.85311,5.51852892 C16.8754292,5.49667378 16.8754292,5.46487712 16.8531967,5.44311648 L16.8531967,5.44311648 L13.6305847,2.28889676 C13.0955684,1.76541371 13.0955684,0.911438908 13.6305173,0.38784301 Z" id="Combined-Shape"></path>
        </g>
    </g>
</svg>