<svg id="respir" xmlns="http://www.w3.org/2000/svg" xmlns:xlink="http://www.w3.org/1999/xlink" viewBox="0 0 70 78" shape-rendering="geometricPrecision" text-rendering="geometricPrecision"><style><![CDATA[]]></style><defs><path id="respir-path-2" d="M49.350340,0L58.689516,0C61.508164,0,63.793059,2.284895,63.793059,5.103398L63.793059,59.551699C63.793059,62.370203,61.508164,64.655098,58.689516,64.655098L45.931019,64.655098C45.128437,64.657699,44.373117,65.035359,43.889660,65.675777L33.861359,79.046797C33.374867,79.628969,32.655102,79.965437,31.896457,79.965437C31.137812,79.965437,30.418191,79.628969,29.931699,79.046797L19.903398,65.675777C19.419797,65.035359,18.664621,64.657699,17.862039,64.655098L5.103398,64.655098C2.284750,64.655098,0,62.370203,0,59.551699L0,5.103398C0,2.284895,2.284750,0,5.103398,0L49.350340,0Z"/><linearGradient id="respir-border-fill" x1="0" y1="0.055976" x2="1" y2="0.944024" spreadMethod="pad" gradientUnits="objectBoundingBox"><stop id="respir-border-fill-0" offset="0%" stop-color="rgb(76,100,255)"/><stop id="respir-border-fill-1" offset="100%" stop-color="rgb(49,36,128)"/></linearGradient><linearGradient id="respir-shape-fill" x1="0.159627" y1="0.013408" x2="0.500000" y2="0.568217" spreadMethod="pad" gradientUnits="objectBoundingBox"><stop id="respir-shape-fill-0" offset="0%" stop-color="rgb(237,84,23)"/><stop id="respir-shape-fill-1" offset="100%" stop-color="rgb(246,224,137)"/></linearGradient><linearGradient id="respir-shape2-fill" x1="0.500000" y1="0" x2="0.500000" y2="1" spreadMethod="pad" gradientUnits="objectBoundingBox"><stop id="respir-shape2-fill-0" offset="0%" stop-color="rgb(17,114,193)"/><stop id="respir-shape2-fill-1" offset="100%" stop-color="rgb(48,49,128)"/></linearGradient><linearGradient id="respir-shape3-fill" x1="0.500000" y1="0" x2="0.500000" y2="1" spreadMethod="pad" gradientUnits="objectBoundingBox"><stop id="respir-shape3-fill-0" offset="0%" stop-color="rgb(77,183,254)"/><stop id="respir-shape3-fill-1" offset="100%" stop-color="rgb(46,55,130)"/></linearGradient></defs><g id="respir-respir"><g id="respir-g1" transform="matrix(1 0 0 1 0 -6)"><path id="respir-background" d="M62.343024,19.518400C65.219537,19.518400,67.551338,21.842662,67.551338,24.709726L67.551338,60.751548C67.551338,63.618613,65.219537,65.942874,62.343024,65.942874L49.322606,65.942874C48.503548,65.945521,47.732722,66.329688,47.239340,66.981140L37.005166,80.582533C36.508687,81.174735,35.774145,81.517001,34.999926,81.517001C34.225707,81.517001,33.491313,81.174735,32.994834,80.582533L22.760660,66.981140C22.267131,66.329688,21.496452,65.945521,20.677394,65.942874L7.656829,65.942874C4.780316,65.942874,2.448662,63.618613,2.448662,60.751548L2.448662,24.709726C2.448662,21.842662,4.780316,19.518400,7.656829,19.518400L62.343024,19.518400Z" fill="rgb(255,255,255)" stroke="none" stroke-width="1"/><path id="respir-border" d="M61.879959,17.034982L8.120011,17.034982C3.637573,17.034982,0.000058,20.660806,0.000058,25.138380L0.000058,59.586681L0.003782,59.834541C0.135070,64.197301,3.720581,67.690079,8.120011,67.690079L20.702000,67.690000L30.631660,80.885513L30.729885,81.009145C31.788268,82.271588,33.352120,83.000419,34.999985,83.000419C36.647839,83.000419,38.211840,82.271597,39.270231,81.009145L39.368456,80.885513L49.297000,67.690000L61.879959,67.690079C66.362399,67.690079,70.000058,64.064254,70.000058,59.586681L70.000058,25.138380C70.000058,20.660808,66.362399,17.034982,61.879959,17.034982ZM61.879959,20.034982C64.707751,20.034982,67.000058,22.319876,67.000058,25.138380L67.000058,59.586681C67.000058,62.405185,64.707751,64.690079,61.879959,64.690079L49.080075,64.690079C48.274890,64.692681,47.517119,65.070341,47.032094,65.710759L36.971262,79.081778C36.483191,79.663950,35.761091,80.000419,34.999985,80.000419C34.238880,80.000419,33.516924,79.663950,33.028854,79.081778L22.968022,65.710759C22.482851,65.070341,21.725226,64.692681,20.920040,64.690079L8.120011,64.690079C5.292219,64.690079,3.000058,62.405185,3.000058,59.586681L3.000058,25.138380C3.000058,22.319876,5.292219,20.034982,8.120011,20.034982L61.879959,20.034982Z" fill="url(#respir-border-fill)" stroke="none" stroke-width="1"/><g id="respir-house" transform="matrix(1 0 0 1 3.00006000000000 0.03498200000000)"><g id="respir-g2" mask="url(#respir-mask-3)"><g id="respir-earth-2" transform="matrix(1 0 0 1 0.18715755562500 -0.18750000000000)" opacity="0.542853"><g id="respir-earth" transform="matrix(1 0 0 1 -82 49)"><circle id="respir-circle1" r="114" transform="matrix(1 0 0 1 114 114)" fill="rgb(176,230,163)" fill-rule="evenodd" stroke="rgb(113,170,96)" stroke-width="5" stroke-opacity="0.347602"/></g></g><g id="respir-energy_ts" transform="translate(32.499773,36.465026) scale(1,1)"><g id="respir-energy" transform="translate(-32.499773,-36.465026)"><g id="respir-g3" transform="matrix(1 0 0 1 2.99994000000000 6.96502000000000)"><path id="respir-shape" d="M31.626100,2.671175C30.727950,1.776275,29.272050,1.776275,28.373900,2.671175L7,24.748061L7,53.562482C7,55.461138,8.544450,57,10.450000,57L49.550000,57C51.455550,57,53,55.461138,53,53.562482L53,24.748061L31.626100,2.671175Z" fill="url(#respir-shape-fill)" stroke="none" stroke-width="1"/><path id="respir-path1" style="mix-blend-mode:multiply" d="M31.626100,2.690397C30.727950,1.769868,29.272050,1.769868,28.373900,2.690397L7,25.399534L7,32L28.373900,9.290862C29.272050,8.370333,30.727950,8.370333,31.626100,9.290862L53,32L53,25.399534L31.626100,2.690397Z" opacity="0.615281" fill="rgb(240,181,27)" stroke="none" stroke-width="1"/><path id="respir-shape2" d="M26.314853,1.800748C28.015587,0.122363,30.744694,0.068222,32.511820,1.638368L32.714043,1.829653L57.858435,27.553739C58.736150,28.451974,58.709995,29.884789,57.800132,30.750930C57.369600,31.160747,56.804056,31.381407,56.219107,31.381407C55.666915,31.381536,55.133178,31.185176,54.714366,30.821011L54.579151,30.693447L54.046000,30.148000L54.046892,52.946206C54.046892,55.862717,51.761594,58.258601,48.869729,58.482853L48.646110,58.495792L48.425801,58.500006L10.574255,58.500006C7.549628,58.500006,5.073618,56.127596,4.957427,53.164078L4.953163,52.946206L4.953000,30.148000L4.420791,30.693449C3.629794,31.502680,2.375316,31.600747,1.472302,30.973201L1.332760,30.868083L1.199772,30.750892C0.331352,29.924073,0.268046,28.580848,1.027573,27.679358L1.141676,27.553682L26.314853,1.800748ZM29.374000,5.597000L9.644000,25.964000L9.893068,53.413582C9.893068,53.944308,10.299175,54.384070,10.819355,54.440346L10.932462,54.446429L48.317749,54.446429C48.852735,54.446429,49.294508,54.042049,49.351050,53.529489L49.357163,53.418107L49.108000,25.967000L29.374000,5.597000Z" fill="url(#respir-shape2-fill)" stroke="none" stroke-width="1"/><path id="respir-shape3" d="M25.963646,1.444864C27.787092,-0.354620,30.685477,-0.479778,32.656177,1.105811L32.855413,1.275127L33.071602,1.480151L58.216050,27.204294C59.288558,28.301877,59.256582,30.054794,58.144866,31.113088C57.624223,31.608681,56.936407,31.881407,56.219224,31.881407C55.694376,31.881530,55.184665,31.735633,54.737789,31.456402L54.545000,31.324000L54.546892,52.946206C54.546892,55.952720,52.313933,58.474874,49.364142,58.928306L49.129802,58.959776L48.898612,58.982018L48.655672,58.995700L48.425801,59.000006L10.574255,59.000006C7.365905,59.000006,4.710961,56.542270,4.470563,53.399487L4.457523,53.173862L4.453163,52.946210L4.453000,31.325000L4.358499,31.395403C3.520824,31.967671,2.425217,32.039494,1.508422,31.574038L1.327577,31.473772L1.171456,31.372566L1.002188,31.243213L0.854999,31.113013C-0.154836,30.151553,-0.278913,28.606877,0.539883,27.492463L0.657387,27.343260L0.784121,27.204177L25.963646,1.444864ZM32.179713,2.012139C30.656972,0.659137,28.339297,0.667429,26.830857,2.002172L26.672408,2.150254L1.511862,27.889781L1.409950,28.001520C0.851506,28.664342,0.867937,29.627147,1.420471,30.260936L1.530344,30.375762L1.633605,30.468719L1.757638,30.562613C2.425872,31.026999,3.329927,30.978509,3.944106,30.455239L4.062921,30.344265L5.452991,28.919614L5.453068,52.936423L5.457043,53.144490C5.560096,55.772922,7.703809,57.883170,10.352403,57.995317L10.574255,58.000098L48.416238,58.000098L48.617227,57.996627L48.831072,57.984350C51.405538,57.784711,53.428379,55.706934,53.541868,53.171126L53.546892,52.946226L53.545952,28.921113L54.922265,30.329753L55.042446,30.443699C55.368144,30.726900,55.784614,30.881509,56.219107,30.881407C56.680745,30.881407,57.121432,30.706670,57.455387,30.388782C58.124091,29.752212,58.179346,28.724334,57.608176,28.023396L57.500876,27.903241L32.370450,2.192894L32.179713,2.012139ZM9.142160,25.763431L29.373990,4.878398L49.606166,25.762629L49.856412,53.445509L49.848035,53.584313C49.768326,54.306890,49.183106,54.871807,48.463378,54.939599L48.317749,54.946429L10.905611,54.945707L10.765576,54.937445C10.037710,54.858700,9.468287,54.277104,9.399969,53.562668L9.393089,53.418119L9.142160,25.763431ZM29.374000,6.315000L10.145000,26.165000L10.393068,53.413582C10.393068,53.654011,10.558057,53.862324,10.766318,53.924728L10.846207,53.941067L10.932462,53.946429L48.317749,53.946429C48.562396,53.946429,48.772862,53.782250,48.835474,53.579627L48.851801,53.502087L48.857184,53.422645L48.610000,26.171000L29.374000,6.315000Z" fill="url(#respir-shape3-fill)" stroke="none" stroke-width="1"/></g></g></g><g id="respir-poumons"><g id="respir-p-all" transform="matrix(1 0 0 1 10.99990000000000 12.96500000000000)"><g id="respir-g4"><g id="respir-p-left_ts" transform="translate(18,30) scale(1,1)"><g id="respir-p-left" transform="translate(-18,-14)"><path id="respir-path2" d="M18,4.979999L18,22.974428C18,24.338024,17.245635,25.599024,16.020743,26.247245C11.637993,28.562186,6.473637,28.602759,2.006879,26.257504C0.769605,25.608351,0,24.344553,0,22.970697L0,14.817103C0,7.885335,4.812890,1.841491,11.678379,0.152385C14.873193,-0.635180,18,1.728075,18,4.979999Z" fill="rgb(102,160,212)" stroke="none" stroke-width="1"/><path id="respir-path3" d="M15.762103,2.676602C16.286975,3.332277,15.893488,4.319393,15.069165,4.429505C14.896765,4.452562,14.725531,4.485791,14.556132,4.529192C8.547116,6.064328,4.334637,11.557249,4.334637,17.857155C4.334637,21.000158,4.333553,22.832742,4.333636,23.913780C4.333720,24.729834,3.477968,25.256324,2.770275,24.871565C1.634915,24.254120,1,23.085094,1,21.876821L1,14.466463C1,8.166557,5.212480,2.673635,11.221495,1.138500C12.979932,0.688385,14.716528,1.370423,15.762103,2.676602Z" fill="rgb(126,191,218)" stroke="none" stroke-width="1"/></g></g><g id="respir-p-right_ts" transform="translate(25,29) scale(1,1)"><g id="respir-p-right" transform="translate(0,-13)"><path id="respir-path-copy" d="M18,4.979999L18,22.974428C18,24.338024,17.245635,25.599024,16.020743,26.247245C11.637993,28.562186,6.473637,28.602759,2.006879,26.257504C0.769605,25.608351,0,24.344553,0,22.970697L0,14.817103C0,7.885335,4.812890,1.841491,11.678379,0.152385C14.873193,-0.635180,18,1.728075,18,4.979999Z" transform="matrix(-1 0 0 1 18 0)" fill="rgb(102,160,212)" stroke="none" stroke-width="1"/><path id="respir-path4" d="M8.561455,2.108412C9.312403,2.462145,9.037461,3.553529,8.202481,3.544202C5.718636,3.516307,3.501331,5.473370,3.501331,8.070833C3.501331,18.012242,3.467981,22.079494,3.500106,23.879616C3.514986,24.715789,2.596237,25.264364,1.835485,24.869000C0.675582,24.266247,0,23.107033,0,21.885246L0,5.527210C0,2.574149,2.870216,0.421905,5.809584,1.138613C6.774113,1.373051,7.694350,1.700076,8.561455,2.108412Z" fill="rgb(126,191,218)" stroke="none" stroke-width="1"/></g></g><path id="respir-p-center" d="M21.500045,-0L21.456447,0.000393L21.289817,0.011315C19.896905,0.174955,18.906329,2.113496,18.906329,3.588420L18.906000,23.575000L12.938213,28.419040C11.876160,29.308658,11.699889,30.843538,12.495846,31.933768L12.636741,32.110204L12.762602,32.243858C13.712024,33.184703,15.227318,33.260131,16.261218,32.394251L21.500000,28.154000L26.751657,32.404616C27.836770,33.313620,29.473940,33.170085,30.394539,32.073633L30.425880,32.035505L30.535410,31.888607C31.295394,30.792350,31.105802,29.293640,30.074185,28.429112L24.093000,23.575000L24.093761,3.588424C24.093761,2.041377,22.998968,-0,21.500045,-0Z" fill="rgb(255,255,255)" stroke="none" stroke-width="1"/></g></g></g><mask id="respir-mask-3" mask-type="luminance"><use id="respir-use1" width="63.793060" height="79.965439" xlink:href="#respir-path-2" fill="rgb(255,255,255)" fill-rule="evenodd" stroke="none" stroke-width="1"/></mask></g></g></g></g></svg>
